<?xml version="1.0" encoding="UTF-8"?>
<svg id="Layer_1" xmlns="http://www.w3.org/2000/svg" version="1.1" viewBox="0 0 18.14 18.05">
  <!-- Generator: Adobe Illustrator 30.6.0, SVG Export Plug-In . SVG Version: 2.1.4 Build 109)  -->
  <defs>
    <style>
      .st0 {
        fill: #fff;
      }
    </style>
  </defs>
  <path class="st0" d="M9.41,15.14c.74.24,1.16.94,1.04,1.66s-.73,1.24-1.45,1.25-1.35-.51-1.47-1.22.28-1.45,1.04-1.69v-3.23s-1.68,0-1.68,0v1.83c0,.26-.19.45-.45.45h-2.07s0,.96,0,.96c.72.22,1.15.92,1.04,1.64s-.74,1.27-1.47,1.26-1.34-.52-1.46-1.24.3-1.44,1.04-1.67v-1.37c0-.27.22-.44.48-.44h2.04s0-1.42,0-1.42h-2.6c-1.79-.03-3.25-1.39-3.42-3.14s1-3.37,2.76-3.73C2.54,2.92,3.81.95,5.77.26s4.27.08,5.39,1.95c1.63-.29,3.2.66,3.69,2.25,1.96.23,3.37,1.95,3.28,3.89s-1.66,3.49-3.63,3.56h-2.56s0,1.44,0,1.44h2.07c.25,0,.44.18.44.43v1.37c.73.22,1.15.92,1.05,1.64s-.74,1.27-1.47,1.27-1.35-.52-1.46-1.23.3-1.45,1.04-1.68v-.95s-2.07,0-2.07,0c-.25,0-.45-.16-.45-.42v-1.87s-1.68,0-1.68,0v3.23ZM14.59,5.27l-.38-.04-.16-.53c-.34-1.15-1.48-1.88-2.66-1.67l-.65.12-.29-.5c-.88-1.49-2.67-2.16-4.31-1.62s-2.67,2.09-2.53,3.8l.1.88-.76.14c-1.31.25-2.2,1.47-2.09,2.79.1,1.25,1.16,2.38,2.5,2.38h11.14c1.56,0,2.78-1.35,2.79-2.84s-1.15-2.81-2.7-2.92ZM4.58,16.56c0-.35-.29-.64-.64-.64s-.64.29-.64.64.29.64.64.64.64-.29.64-.64ZM9.63,16.56c0-.35-.29-.64-.64-.64s-.64.29-.64.64.29.64.64.64.64-.29.64-.64ZM14.68,16.56c0-.35-.29-.64-.64-.64s-.64.29-.64.64.29.64.64.64.64-.29.64-.64Z"/>
  <path class="st0" d="M6.9,8.51h-1.52s-.38,1.1-.38,1.1h-.78s1.53-4.21,1.53-4.21h.77s1.53,4.22,1.53,4.22h-.78s-.37-1.1-.37-1.1ZM6.68,7.87l-.55-1.58-.55,1.59h1.09Z"/>
  <path class="st0" d="M10.13,8.19l-1.02.02v1.41s-.73,0-.73,0v-4.23s1.69,0,1.69,0c.79,0,1.35.66,1.31,1.44,0,.72-.51,1.3-1.25,1.36ZM10.63,6.67c-.05-.36-.3-.62-.65-.63h-.87s0,1.52,0,1.52h.8c.48,0,.79-.41.71-.89Z"/>
  <rect class="st0" x="11.84" y="5.38" width=".75" height="4.23"/>
</svg>