<?xml version="1.0" encoding="UTF-8"?>
<svg id="Layer_1" xmlns="http://www.w3.org/2000/svg" version="1.1" viewBox="0 0 17.53 20">
  <!-- Generator: Adobe Illustrator 30.6.0, SVG Export Plug-In . SVG Version: 2.1.4 Build 109)  -->
  <defs>
    <style>
      .st0 {
        fill: #fff;
      }
    </style>
  </defs>
  <path class="st0" d="M11.81,4.57c-.02.07-.05.1-.1.12-.06.02-.15,0-.18-.08l-.42-1.26-1.23-.41c-.07-.02-.09-.07-.1-.11s0-.13.05-.15l1.29-.43.41-1.23c.02-.06.06-.09.11-.1.05-.01.14,0,.17.07l.42,1.26,1.23.41c.07.02.11.08.11.14,0,.08-.05.13-.14.16l-1.2.4-.41,1.22Z"/>
  <path class="st0" d="M16.4,2.19c-.03.08-.14.09-.15.04l-.27-.77-.72-.24c-.06-.02-.1-.13-.04-.15l.77-.27.24-.72s.03-.06.05-.07c.03-.02.1-.01.12.03l.27.77.76.25s.04.08.02.1c-.01.02-.03.05-.07.06l-.71.24-.24.73Z"/>
  <path class="st0" d="M6.37,18.35c-1.37,1.41-3.43,1.89-5.33,1.54-.52-.1-1.08-.32-1.03-.78.02-.16.14-.32.32-.39.65-.26,1.14-.74,1.38-1.4l.36-1c.41-1.14,1.31-2.17,2.58-1.93.01-.34.14-.6.37-.81l1.61-1.48L1.91,7.39c-.84-.84-.77-2.09.04-2.91s2.1-.9,2.96-.04l1.04,1.04q.18.17.28.27l3.49,3.5,5.45-5.04c.55-.51,1.33-.52,1.88-.03.59.53.66,1.38.11,1.98l-9.45,10.24c-.22.24-.52.3-.85.31.1.62-.06,1.2-.49,1.64ZM3.44,7.58l1.64-1.64-.94-.93c-.43-.42-1.14-.31-1.51.14-.46.39-.53,1.09-.1,1.52l.91.91ZM7.04,15.74l9.49-10.29c.16-.18.01-.44-.09-.54-.13-.13-.39-.23-.56-.07L5.61,14.31c-.06.11,0,.28.05.36.27.47.9,1.16,1.39,1.07ZM7.31,11.46l1.71-1.58-3.28-3.28-1.64,1.65,3.21,3.21ZM5.72,17.66c.59-.65-.1-1.83-.98-2.25s-1.46.37-1.79,1.21l-.36,1c-.2.55-.52,1.01-.96,1.41,1.51.14,3.11-.27,4.1-1.37Z"/>
  <path class="st0" d="M16.61,19.8c-1.04-.33-3.45-1.18-4.07-1.79l-2.32-2.3.61-.73,1.89,1.89,1.64-1.65-2.01-2.01.61-.71,2.33,2.3c.4.39.65.87.88,1.39.43.93.77,1.88,1.09,2.85.13.38-.43.83-.66.76ZM16.13,18.64c-.34-.99-.68-1.87-1.14-2.72l-1.59,1.6c.9.45,1.77.81,2.73,1.12Z"/>
</svg>