<?xml version="1.0" encoding="UTF-8"?>
<svg id="Layer_1" xmlns="http://www.w3.org/2000/svg" version="1.1" viewBox="0 0 18.26 16.77">
  <!-- Generator: Adobe Illustrator 30.6.0, SVG Export Plug-In . SVG Version: 2.1.4 Build 109)  -->
  <defs>
    <style>
      .st0 {
        fill: #fff;
      }
    </style>
  </defs>
  <path class="st0" d="M11.62,16.77h-6.3c-.16,0-.24-.15-.26-.26-.02-.12.05-.26.18-.31,1-.39,1.56-1.26,1.68-2.35H1.41c-.68,0-1.41-.56-1.41-1.29V2.76C0,2.05.68,1.47,1.37,1.47h13.58s1.25-1.24,1.25-1.24c.33-.33.88-.27,1.2.04l.61.62c.3.32.34.85.02,1.17l-1.02,1.03v9.39c-.01.78-.7,1.37-1.46,1.37h-5.47c.11,1.07.67,1.95,1.66,2.34.14.06.22.19.2.32-.03.17-.14.27-.33.27ZM16.77.48l-6.73,6.73,1,1,6.73-6.73-1-1ZM16.41,3.69l-5.23,5.22-1.86.35c-.21-.02-.34-.17-.31-.38l.34-1.81,5-5H1.34c-.42,0-.71.38-.75.77v9.6c0,.44.39.8.83.8h14.21c.43-.05.79-.35.79-.8V3.69ZM10.41,8.43l-.59-.6-.14.75.73-.15ZM10.57,16.16c-.67-.65-.99-1.43-1.08-2.32h-1.98c-.08.9-.42,1.69-1.09,2.33h4.15Z"/>
  <path class="st0" d="M8.56,8.83c-.04,1.12-.98,1.94-2.07,1.85-1.12.09-2.06-.79-2.06-1.91v-1.49c0-1.2-.99-2.17-2.19-2.22h-.84c-.16,0-.26-.16-.27-.29-.01-.12.08-.3.23-.3h.87c1.53.04,2.78,1.28,2.78,2.81v1.53c.02.78.69,1.36,1.46,1.27.78.09,1.45-.49,1.47-1.26,0-.18.12-.3.27-.31.18,0,.33.1.33.33Z"/>
</svg>