<?xml version="1.0" encoding="UTF-8"?>
<svg id="Layer_1" xmlns="http://www.w3.org/2000/svg" version="1.1" viewBox="0 0 19.94 17.95">
  <!-- Generator: Adobe Illustrator 30.6.0, SVG Export Plug-In . SVG Version: 2.1.4 Build 109)  -->
  <defs>
    <style>
      .st0 {
        fill: #fff;
        stroke: #fff;
        stroke-miterlimit: 10;
        stroke-width: .25px;
      }
    </style>
  </defs>
  <path class="st0" d="M17.91,11.2c.06-.19.2-.26.36-.22.14.03.24.2.19.36-.99,3.63-4.2,6.22-7.92,6.46-4.79.31-8.94-3.3-9.34-8.07l-.59.76c-.1.13-.29.13-.4.02-.1-.1-.12-.25,0-.39l.98-1.28c.08-.11.27-.21.4-.11l1.38,1.05c.13.1.14.27.06.38-.1.15-.27.17-.41.06l-.87-.64c.29,4.01,3.42,7.18,7.32,7.61s7.74-2.07,8.84-5.97v-.02Z"/>
  <path class="st0" d="M17.02,8.17c-.15-.11-.19-.26-.12-.39s.25-.21.38-.11l.91.67c-.32-4.15-3.65-7.38-7.75-7.61-3.85-.22-7.36,2.27-8.41,6.01-.04.14-.21.23-.35.18s-.23-.2-.19-.34C2.65,2.44,6.59-.24,10.82.16c4.23.4,7.53,3.71,7.93,7.97l.56-.69c.11-.14.3-.15.42-.04s.11.28,0,.42l-1.03,1.32c-.11.14-.3.09-.42,0l-1.27-.97h0Z"/>
  <path class="st0" d="M11.06,15.11h-2.15c-.11,0-.23-.12-.24-.22l-.19-1.23c-.27-.09-.5-.19-.76-.32l-.94.71c-.09.07-.26.14-.36.04l-1.56-1.56c-.11-.11-.05-.28.02-.38l.71-.94c-.12-.25-.22-.48-.3-.76l-1.18-.17c-.13-.02-.28-.11-.28-.27v-2.13c0-.12.11-.23.21-.24l1.24-.2c.08-.28.19-.51.31-.75l-.71-.94c-.06-.08-.14-.26-.04-.36l1.58-1.58c.09-.09.28-.02.35.04l.94.71c.25-.12.48-.21.76-.3l.18-1.21c.02-.13.11-.25.26-.25h2.13c.16,0,.24.15.26.28l.17,1.16c.27.09.5.19.76.32l.92-.69c.09-.06.27-.16.38-.06l1.58,1.58c.1.1.02.27-.04.36l-.71.94c.12.25.22.48.3.76l1.25.19c.11.02.21.13.21.24v2.13c0,.15-.15.25-.28.27l-1.16.17c-.09.26-.19.5-.32.76l.71.94c.08.1.13.27.02.38l-1.56,1.56c-.09.09-.25.04-.33-.03l-.96-.73c-.25.12-.48.22-.76.3l-.19,1.25c0,.08-.11.22-.23.22h0ZM10.79,14.56l.16-1.12c0-.12.09-.23.21-.26.32-.09.62-.21.91-.37.1-.05.25-.09.35-.01l.94.71,1.14-1.15-.66-.87c-.09-.12-.13-.26-.05-.41.17-.3.29-.61.39-.94.04-.13.14-.19.26-.21l1.12-.17v-1.62l-1.17-.17c-.26-.04-.3-.72-.6-1.15-.05-.1-.06-.23.01-.32l.7-.94-1.13-1.14-.97.71c-.09.06-.2.05-.3,0-.3-.17-.6-.29-.94-.39-.12-.03-.2-.13-.22-.25l-.17-1.14h-1.61l-.16,1.12c-.02.14-.11.23-.24.27-.33.09-.63.22-.93.39-.1.05-.21.06-.29,0l-.95-.71-1.14,1.14.69.93c.06.08.09.2.04.29-.17.31-.3.62-.4.96-.04.13-.14.22-.27.24l-1.13.16v1.62l1.12.16c.12.02.23.08.27.2.1.34.23.66.4.97.05.1.05.21,0,.31l-.7.95,1.14,1.14.94-.7c.1-.07.25-.05.35,0,.28.16.57.27.88.36.13.04.22.12.24.26l.16,1.14h1.63,0Z"/>
  <path class="st0" d="M12.53,8.95c0,1.42-1.15,2.56-2.56,2.56s-2.56-1.15-2.56-2.56,1.15-2.56,2.56-2.56,2.56,1.15,2.56,2.56ZM11.97,8.95c0-1.11-.9-2-2-2s-2,.9-2,2,.9,2,2,2,2-.9,2-2Z"/>
</svg>