<?xml version="1.0" encoding="UTF-8"?>
<svg id="Layer_1" xmlns="http://www.w3.org/2000/svg" version="1.1" viewBox="0 0 19.6 13">
  <!-- Generator: Adobe Illustrator 30.6.0, SVG Export Plug-In . SVG Version: 2.1.4 Build 109)  -->
  <defs>
    <style>
      .st0 {
        fill: #fff;
      }
    </style>
  </defs>
  <path class="st0" d="M13.95,10.95c-.19-.24.39-.74-.08-1.4-.22-.3-.6-.42-.99-.36-.31.05-.56.28-.66.51-.29.64.19.96-.01,1.26-.05.07-.14.12-.27.12h-5.81c.2.99-.53,1.9-1.51,1.92s-1.79-.87-1.6-1.92H.29c-.16,0-.29-.13-.29-.29v-3.21c0-.11.05-.22.14-.25.16-.06.3,0,.45.06.43.16.9,0,1.15-.35.26-.37.23-.88-.07-1.21s-.79-.42-1.21-.2c-.08.04-.21.04-.28,0-.07-.03-.17-.1-.17-.22v-3.21c0-.15.11-.29.26-.29h2.71c-.08-.55.05-1.05.4-1.42S4.19-.05,4.72.01c.93.1,1.54.95,1.38,1.9h5.82c.13,0,.22.1.26.16.06.1.05.23,0,.33-.21.38-.12.85.18,1.14.31.31.8.39,1.19.14.44-.29.55-.88.3-1.34-.08-.15,0-.42.2-.42h3.26c.16,0,.27.14.27.29v2.7c.9-.14,1.74.39,1.98,1.24.15.53-.02,1.09-.37,1.47-.38.41-.91.57-1.49.48v2.72c0,.16-.14.29-.3.29h-3.2c-.11,0-.2-.11-.24-.16ZM3.68,10.91c-.21.45-.1.94.28,1.22s.87.26,1.22-.04.44-.78.23-1.19c-.06-.12-.09-.24-.01-.35.05-.07.14-.14.27-.14h2.86s0-2.34,0-2.34c-1.05.21-1.93-.59-1.91-1.6s.92-1.71,1.92-1.51v-2.39s-2.82,0-2.82,0c-.14,0-.25-.09-.29-.17-.06-.12-.03-.23.02-.34.26-.54.02-1.19-.56-1.36-.38-.11-.78,0-1.02.27-.26.29-.31.7-.15,1.06.06.12.12.23.05.35-.05.08-.14.18-.27.18H.62s0,2.36,0,2.36c.57-.11,1.11.07,1.47.45.38.39.52.93.39,1.47-.22.81-1,1.33-1.86,1.18v2.39s2.84,0,2.84,0c.12.01.2.09.24.17.05.1.03.21-.03.33ZM16.95,7.64c0-.16.07-.25.16-.31s.21-.05.32.01c.56.29,1.21.01,1.4-.59.1-.31.06-.61-.14-.88-.15-.21-.42-.36-.72-.37-.23-.01-.41.05-.62.15-.18.08-.39-.11-.39-.31v-2.82s-2.36,0-2.36,0c.08.53-.04,1.04-.4,1.41s-.83.55-1.35.49c-.92-.12-1.54-.97-1.38-1.9h-2.39s0,2.82,0,2.82c-.03.13-.1.23-.18.28-.11.06-.22.04-.33-.02-.43-.2-.95-.1-1.24.28s-.26.86.04,1.21.79.46,1.21.23c.1-.06.23-.06.33,0,.08.05.14.15.14.28v2.86s2.37,0,2.37,0c-.11-.55.05-1.05.38-1.41s.81-.54,1.33-.49c.95.09,1.58.97,1.4,1.91h2.39s0-2.8,0-2.8Z"/>
</svg>