<svg xmlns="http://www.w3.org/2000/svg" width="28" height="28" fill="none"><path d="M 10.5 24.5 L 9.333 24.5 C 8.045 24.5 7 23.457 7 22.168 C 7 20.358 7 17.902 7 16.333 C 7 15.167 5.25 14 5.25 14 C 5.25 14 7 12.833 7 11.667 C 7 10.298 7 7.726 7 5.832 C 7 4.544 8.045 3.5 9.333 3.5 L 10.5 3.5" fill="transparent" stroke="rgb(255, 255, 255)" stroke-linecap="round" stroke-linejoin="round" stroke-dasharray=""></path><path d="M 17.5 24.5 L 18.667 24.5 C 19.955 24.5 21 23.457 21 22.168 C 21 20.358 21 17.902 21 16.333 C 21 15.167 22.75 14 22.75 14 C 22.75 14 21 12.833 21 11.667 C 21 10.298 21 7.726 21 5.832 C 21 4.544 19.955 3.5 18.667 3.5 L 17.5 3.5" fill="transparent" stroke="rgb(255, 255, 255)" stroke-linecap="round" stroke-linejoin="round" stroke-dasharray=""></path></svg>