<?xml version="1.0" encoding="UTF-8"?>
<svg id="Layer_1" xmlns="http://www.w3.org/2000/svg" version="1.1" viewBox="0 0 16.9 20">
  <!-- Generator: Adobe Illustrator 30.6.0, SVG Export Plug-In . SVG Version: 2.1.4 Build 109)  -->
  <defs>
    <style>
      .st0 {
        fill: #fff;
      }
    </style>
  </defs>
  <path class="st0" d="M8.87,19.91c-.31.11-.55.13-.83,0C3.46,18.36.38,14.62,0,10.05V3.43c0-.2.14-.34.28-.47,4.91-3.93,11.39-3.95,16.32-.02.15.14.3.28.3.5v6.58c-.35,4.56-3.42,8.33-8.02,9.9ZM8.44,18.51c3.92-1.33,6.61-4.66,6.91-8.56V3.85C12.08,1.36,7.9.69,4.06,2.37c-.92.39-1.71.88-2.53,1.48l.03,6.02c.19,3.93,2.98,7.3,6.88,8.65Z"/>
  <path class="st0" d="M4.05,10.75c-.31-.31-.27-.78,0-1.07s.76-.34,1.05-.05l1.81,1.8,4.88-4.87c.3-.3.8-.21,1.05.05.27.28.31.76,0,1.06l-5.44,5.44c-.26.26-.74.25-.99,0l-2.36-2.36Z"/>
</svg>