<?xml version="1.0" encoding="UTF-8"?>
<svg id="Layer_1" xmlns="http://www.w3.org/2000/svg" version="1.1" viewBox="0 0 18.61 18.61">
  <!-- Generator: Adobe Illustrator 30.6.0, SVG Export Plug-In . SVG Version: 2.1.4 Build 109)  -->
  <defs>
    <style>
      .st0 {
        fill: #fff;
        stroke: #fff;
        stroke-miterlimit: 10;
        stroke-width: .25px;
      }
    </style>
  </defs>
  <path class="st0" d="M18.49,7.3v2.21c-.14.44-.52.72-1,.72h-.93c-.11,0-.19.11-.23.2-.1.27-.2.53-.33.79-.06.13-.05.28.05.38l.66.66c.37.37.38.95,0,1.32l-1.31,1.3c-.35.35-.91.35-1.26,0l-1.04-1.04c-.13-.13-.1-.33,0-.43.11-.11.31-.12.43,0l1.05,1.03c.11.1.3.08.4-.02l1.31-1.31c.11-.11.11-.3,0-.41l-.73-.74c-.27-.28-.27-.68-.12-1.03l.28-.68c.15-.36.44-.65.84-.66h1c.17,0,.31-.14.31-.32v-1.84c0-.16-.13-.27-.28-.27h-.99c-.4-.01-.74-.26-.87-.64-.09-.27-.21-.52-.32-.78-.16-.35-.07-.75.2-1.02l.68-.68c.12-.12.11-.31,0-.43l-1.29-1.29c-.13-.13-.32-.11-.45.01l-.67.66c-.27.27-.66.36-1.02.2-.27-.12-.53-.23-.81-.34-.37-.14-.6-.47-.6-.86v-.96c0-.16-.12-.31-.29-.31h-1.84c-.18,0-.31.14-.31.31v.93c0,.44-.28.79-.69.92-.23.07-.44.17-.66.27-.35.17-.76.15-1.04-.12l-.74-.73c-.11-.11-.3-.11-.41,0l-1.31,1.3c-.11.11-.12.31,0,.42l1,1.01c.13.13.11.34,0,.45s-.31.11-.43,0l-1-1.01c-.36-.36-.36-.93,0-1.3l1.29-1.29c.37-.37.96-.36,1.32,0l.67.66c.11.1.25.12.38.06.26-.13.51-.23.78-.33.11-.04.21-.14.21-.26v-.98c0-.47.36-.92.85-.92h1.97c.46,0,.85.41.85.85v1.01c0,.13.09.25.21.3.27.1.53.2.79.33.12.06.26.07.36-.03l.7-.7c.36-.36.94-.35,1.3,0l1.29,1.29c.37.37.36.96-.01,1.32l-.66.66c-.1.1-.11.25-.05.38.13.26.23.52.33.79.05.15.18.21.33.21h.97c.43,0,.76.35.86.75Z"/>
  <path class="st0" d="M12.51,5.89c-1.33-1.22-3.38-1.16-4.65.1-.13.13-.29.13-.41.04-.13-.09-.19-.31-.07-.44,1.54-1.58,4.07-1.58,5.62-.06s1.6,4.07.04,5.65c-.13.13-.3.15-.44.02-.12-.11-.15-.31-.01-.44,1.36-1.35,1.34-3.56-.08-4.87Z"/>
  <path class="st0" d="M7.04,18.48h-1.61c-1.05-.34-.55-1.29-.82-1.47-.15-.1-.33-.18-.5-.21-.15-.02-.28.12-.37.23-.37.42-.97.51-1.38.1l-.89-.89c-.41-.41-.32-1.03.12-1.4.1-.08.23-.21.21-.35-.02-.18-.1-.36-.21-.5-.08-.11-.26-.12-.4-.1-.54.06-1.07-.31-1.07-.86v-1.36c0-.47.42-.82.87-.84l.45-.02c.19,0,.4-.53.35-.68-.04-.13-.16-.22-.26-.31-.41-.38-.44-.98-.04-1.38l.9-.89c.4-.4,1.04-.26,1.38.17.17.22.36.22.59.12s.39-.23.35-.52c-.08-.57.32-1.09.91-1.09h1.22c.59,0,.99.5.93,1.09-.03.26.08.46.35.5.1.07.23.12.37.08.07-.03.16-.1.23-.19.35-.43.98-.54,1.38-.15l.88.87c.42.42.37,1.07-.1,1.44-.21.17-.25.37-.12.61.06.11.08.27.23.31.13.04.27.03.41.02.53,0,.96.39.96.93v1.22c0,.57-.49.98-1.06.92-.13-.01-.32-.01-.4.09-.11.14-.19.33-.22.52-.02.15.12.27.22.36.44.38.5,1,.09,1.41l-.84.84c-.41.41-1.01.37-1.4-.06-.09-.1-.21-.25-.35-.24-.19.01-.4.11-.55.22-.21.17.21,1.14-.81,1.45ZM7.85,16.31c.49-.21.98-.17,1.33.29.08.11.32.26.45.13l.97-.97c.14-.14-.01-.39-.13-.48-.45-.35-.48-.82-.29-1.3s.57-.78,1.14-.7c.18.03.42-.08.42-.29v-1.22c0-.12-.05-.21-.12-.26-.23-.17-1.07.21-1.44-.8-.23-.62-.13-.91.36-1.36.13-.12.16-.32.02-.46l-.86-.86c-.17-.17-.41-.06-.54.11-.34.4-.84.52-1.29.25-.5-.13-.77-.59-.71-1.11.02-.18-.05-.42-.26-.42h-1.32c-.19,0-.28.25-.26.41.08.57-.23.94-.71,1.14s-.95.16-1.3-.29c-.12-.15-.36-.26-.52-.11-.32.31-.63.61-.92.94-.12.14.02.36.13.45.45.34.5.83.3,1.31-.42,1.03-1.19.6-1.45.79-.07.05-.12.15-.12.26v1.14c0,.12.04.23.12.29.28.2,1.02-.23,1.44.77.21.49.15.98-.3,1.33-.14.11-.24.34-.09.49l.9.9c.15.15.38.05.49-.09.35-.45.84-.5,1.33-.3,1.01.42.56,1.19.78,1.46.06.07.16.11.27.11h1.15c.69,0-.16-1.06,1.03-1.56Z"/>
  <path class="st0" d="M9,12.37c0,1.52-1.24,2.76-2.76,2.76s-2.76-1.24-2.76-2.76,1.24-2.76,2.76-2.76,2.76,1.24,2.76,2.76ZM8.37,12.36c0-1.18-.96-2.14-2.14-2.14s-2.14.96-2.14,2.14.96,2.14,2.14,2.14,2.14-.96,2.14-2.14Z"/>
</svg>