<?xml version="1.0" encoding="UTF-8"?>
<svg id="Layer_1" xmlns="http://www.w3.org/2000/svg" version="1.1" viewBox="0 0 18.71 18.71">
  <!-- Generator: Adobe Illustrator 30.6.0, SVG Export Plug-In . SVG Version: 2.1.4 Build 109)  -->
  <defs>
    <style>
      .st0 {
        fill: #fff;
      }
    </style>
  </defs>
  <path class="st0" d="M10.35,18.71h-1.98c-.48-.03-.89-.41-.89-.89v-1.38c-.64-.17-1.22-.41-1.81-.75l-.94.93c-.36.36-.94.39-1.31.03l-1.37-1.36c-.34-.37-.34-.93.01-1.29l.95-.95c-.33-.58-.59-1.17-.75-1.82H.89c-.48,0-.87-.41-.89-.89v-1.95c.03-.52.46-.9.97-.9h1.3c.17-.63.41-1.22.75-1.81l-.97-.98c-.35-.35-.33-.91,0-1.27l1.36-1.36c.39-.36.96-.33,1.34.05l.91.92c.58-.33,1.17-.58,1.82-.75V.89c0-.52.46-.91.97-.89h1.84c.54,0,.94.44.94.97v1.3c.64.16,1.24.42,1.82.75l1-.98c.35-.34.92-.29,1.27.04l1.33,1.33c.34.36.38.93.02,1.29l-.97.97c.32.58.58,1.15.75,1.81h1.38c.49.01.87.42.89.9v1.88c.01.53-.4.97-.93.97h-1.34c-.17.64-.41,1.22-.75,1.81l.88.88c.39.39.47.99.06,1.39l-1.34,1.34c-.38.34-.93.34-1.29-.01l-.95-.95c-.58.33-1.17.59-1.82.75v1.3c0,.5-.35.93-.87.97ZM10.29,18.09c.17,0,.31-.14.31-.31v-1.56c0-.17.1-.29.26-.33.73-.17,1.4-.45,2.04-.84.14-.08.29-.09.41.03l1.13,1.13c.12.12.31.11.43,0l1.32-1.32c.12-.12.11-.3.01-.43l-1.13-1.13c-.12-.12-.11-.27-.03-.41.39-.64.68-1.31.84-2.04.04-.16.16-.26.33-.26h1.56c.17,0,.31-.14.31-.31v-1.87c0-.18-.14-.31-.31-.31h-1.56c-.16,0-.29-.1-.33-.26-.17-.73-.45-1.4-.84-2.04-.08-.14-.09-.29.03-.41l1.13-1.13c.1-.13.11-.31-.01-.43l-1.32-1.32c-.12-.12-.31-.13-.43,0l-1.13,1.12c-.12.12-.27.11-.41.03-.63-.39-1.31-.68-2.04-.84-.16-.04-.26-.16-.26-.33V.94c0-.17-.14-.31-.31-.31h-1.87c-.18,0-.31.14-.31.31v1.56c0,.16-.1.29-.26.33-.73.17-1.4.45-2.04.84-.14.08-.29.09-.41-.03l-1.13-1.12c-.12-.12-.31-.11-.43,0l-1.32,1.32c-.12.12-.13.31,0,.43l1.12,1.13c.12.12.11.27.03.41-.4.64-.68,1.33-.85,2.07-.03.15-.18.23-.32.23H.93c-.17,0-.31.14-.31.31v1.87c0,.17.14.31.31.31h1.56c.16,0,.29.1.33.26.17.73.45,1.4.84,2.04.08.14.09.29-.03.41l-1.13,1.13c-.12.12-.11.31,0,.43l1.32,1.32c.12.12.31.13.43,0l1.13-1.12c.12-.11.27-.11.41-.03.63.39,1.31.68,2.04.84.16.04.26.16.26.33v1.56c0,.17.14.31.31.31h1.87Z"/>
  <g>
    <path class="st0" d="M14.97,9.36c0,3.1-2.51,5.61-5.61,5.61s-5.61-2.51-5.61-5.61,2.51-5.61,5.61-5.61,5.61,2.51,5.61,5.61ZM14.34,9.36c0-2.75-2.23-4.99-4.99-4.99s-4.99,2.23-4.99,4.99,2.23,4.99,4.99,4.99,4.99-2.23,4.99-4.99Z"/>
    <path class="st0" d="M12.5,10.16l-3.96,2.32c-.32.18-.65.22-.99.06-.27-.14-.53-.42-.53-.79v-3.97c-.01-.38-.06-.71.07-1.07.18-.51.82-.79,1.32-.5l3.8,2.18c.37.21.67.48.71.93.03.3-.11.68-.42.86ZM8.24,11.92l3.79-2.18c.13-.07.22-.15.25-.26.03-.12.03-.31-.09-.38l-3.96-2.31c-.19-.11-.54-.1-.57.16-.07.66-.04,1.31-.04,1.98v2.73c0,.16.12.28.22.32.14.06.24.02.4-.06Z"/>
  </g>
</svg>