<?xml version="1.0" encoding="UTF-8"?>
<svg id="Layer_1" xmlns="http://www.w3.org/2000/svg" version="1.1" viewBox="0 0 20 15.33">
  <!-- Generator: Adobe Illustrator 30.6.0, SVG Export Plug-In . SVG Version: 2.1.4 Build 109)  -->
  <defs>
    <style>
      .st0 {
        fill: #fff;
      }
    </style>
  </defs>
  <path class="st0" d="M0,7.89v-.46s.19-.36.19-.36l3.8-3.8c.39-.39,1.03-.33,1.39.04s.39.98.01,1.36l-2.99,2.99,2.95,2.95c.41.41.39,1.07-.01,1.44-.43.39-1.03.34-1.44-.07L.19,8.26,0,7.89Z"/>
  <path class="st0" d="M7.96,14.65c-.25.56-.8.83-1.35.6s-.75-.84-.5-1.4L12.06.64c.24-.54.82-.79,1.35-.55s.71.84.47,1.39l-5.92,13.17Z"/>
  <path class="st0" d="M16.05,12.36c-.42.42-1.05.39-1.43,0-.4-.41-.37-1.04.04-1.45l2.92-2.91-2.99-3.01c-.39-.39-.32-1.02.05-1.38s.99-.4,1.38,0l3.69,3.68c.38.38.41,1.01.02,1.39l-3.67,3.68Z"/>
</svg>