<svg width="24" height="24" viewBox="0 0 24 24" fill="none" xmlns="http://www.w3.org/2000/svg">
<path d="M20.93 3.07002C19.66 1.80002 17.51 1.65002 14.87 2.67002C13.93 3.03002 12.97 3.53002 12 4.13002C11.03 3.52002 10.06 3.03002 9.12999 2.67002C6.49999 1.66002 4.33999 1.80002 3.06999 3.07002C1.79999 4.34002 1.64999 6.49002 2.66999 9.13002C3.02999 10.07 3.52999 11.03 4.12999 12C3.51999 12.97 3.02999 13.94 2.66999 14.87C1.65999 17.5 1.79999 19.66 3.06999 20.93C3.77999 21.64 4.76999 22 5.95999 22C6.89999 22 7.96999 21.78 9.12999 21.33C10.07 20.97 11.03 20.47 12 19.87C12.97 20.48 13.94 20.97 14.87 21.33C16.03 21.78 17.1 22 18.04 22C19.23 22 20.22 21.64 20.93 20.93C22.2 19.66 22.35 17.51 21.33 14.87C20.97 13.93 20.47 12.97 19.87 12C20.48 11.03 20.97 10.06 21.33 9.13002C22.34 6.50002 22.2 4.34002 20.93 3.07002ZM4.53999 8.41002C3.84999 6.61002 3.82999 5.14002 4.48999 4.48002C4.80999 4.16002 5.31999 4.00002 5.96999 4.00002C6.64999 4.00002 7.48999 4.18002 8.40999 4.53002C8.98999 4.75002 9.58999 5.04002 10.2 5.38002C8.39741 6.7709 6.78087 8.38744 5.38999 10.19C5.04999 9.58002 4.75999 8.99002 4.53999 8.40002V8.41002ZM12 6.54002C14.1016 8.05474 15.9453 9.8984 17.46 12C15.9453 14.1017 14.1016 15.9453 12 17.46C9.89837 15.9453 8.05471 14.1017 6.53999 12C8.05471 9.8984 9.89837 8.05474 12 6.54002ZM8.40999 19.46C6.60999 20.15 5.13999 20.17 4.47999 19.51C3.81999 18.85 3.83999 17.38 4.52999 15.58C4.74999 15 5.03999 14.4 5.37999 13.79C6.77087 15.5926 8.38741 17.2092 10.19 18.6C9.57999 18.94 8.98999 19.23 8.39999 19.45L8.40999 19.46ZM19.46 15.58C20.15 17.38 20.17 18.85 19.51 19.51C18.85 20.17 17.38 20.15 15.58 19.46C15 19.24 14.4 18.95 13.79 18.61C15.5926 17.2192 17.2091 15.6026 18.6 13.8C18.94 14.41 19.23 15 19.45 15.59L19.46 15.58ZM19.46 8.40002C19.24 8.98002 18.95 9.58002 18.61 10.19C17.2191 8.38744 15.6026 6.7709 13.8 5.38002C14.41 5.04002 15 4.75002 15.59 4.53002C16.51 4.18002 17.35 4.00002 18.03 4.00002C18.71 4.00002 19.19 4.16002 19.52 4.48002C20.18 5.14002 20.16 6.61002 19.47 8.41002L19.46 8.40002Z" fill="#2558B4"/>
<path d="M13.77 13.77C14.75 12.79 14.75 11.21 13.77 10.23C12.79 9.25 11.21 9.25 10.23 10.23C9.25 11.21 9.25 12.79 10.23 13.77C11.21 14.75 12.79 14.75 13.77 13.77Z" fill="#2558B4"/>
</svg>
