<svg xmlns="http://www.w3.org/2000/svg" width="18" height="21" fill="none" overflow="visible"><path d="M 7 2 C 6.717 2 6.479 1.904 6.288 1.712 C 6.097 1.52 6.001 1.283 6 1 C 5.999 0.717 6.095 0.48 6.288 0.288 C 6.481 0.096 6.718 0 7 0 L 11 0 C 11.283 0 11.521 0.096 11.713 0.288 C 11.905 0.48 12.001 0.717 12 1 C 11.999 1.283 11.903 1.52 11.712 1.713 C 11.521 1.906 11.283 2.001 11 2 Z M 9.713 12.713 C 9.904 12.521 10 12.283 10 12 L 10 8 C 10 7.717 9.904 7.479 9.712 7.288 C 9.52 7.097 9.283 7.001 9 7 C 8.717 6.999 8.48 7.095 8.288 7.288 C 8.096 7.481 8 7.718 8 8 L 8 12 C 8 12.283 8.096 12.521 8.288 12.713 C 8.48 12.905 8.717 13.001 9 13 C 9.283 12.999 9.52 12.903 9.713 12.712 M 5.513 20.288 C 4.421 19.813 3.467 19.167 2.65 18.35 C 1.833 17.533 1.188 16.579 0.713 15.487 C 0.238 14.395 0.001 13.233 0 12 C -0.001 10.767 0.237 9.605 0.713 8.512 C 1.189 7.419 1.835 6.465 2.65 5.65 C 3.465 4.835 4.42 4.189 5.513 3.713 C 6.606 3.237 7.769 2.999 9 3 C 10.033 3 11.025 3.167 11.975 3.5 C 12.925 3.833 13.817 4.317 14.65 4.95 L 15.35 4.25 C 15.533 4.067 15.767 3.975 16.05 3.975 C 16.333 3.975 16.567 4.067 16.75 4.25 C 16.933 4.433 17.025 4.667 17.025 4.95 C 17.025 5.233 16.933 5.467 16.75 5.65 L 16.05 6.35 C 16.683 7.183 17.167 8.075 17.5 9.025 C 17.833 9.975 18 10.967 18 12 C 18 13.233 17.762 14.396 17.287 15.488 C 16.812 16.58 16.166 17.534 15.35 18.35 C 14.534 19.166 13.58 19.812 12.487 20.288 C 11.394 20.764 10.232 21.001 9 21 C 7.768 20.999 6.605 20.761 5.512 20.288 M 13.95 16.95 C 15.317 15.583 16 13.933 16 12 C 16 10.067 15.317 8.417 13.95 7.05 C 12.583 5.683 10.933 5 9 5 C 7.067 5 5.417 5.683 4.05 7.05 C 2.683 8.417 2 10.067 2 12 C 2 13.933 2.683 15.583 4.05 16.95 C 5.417 18.317 7.067 19 9 19 C 10.933 19 12.583 18.317 13.95 16.95 M 9 12" fill="rgb(92, 92, 92)"></path></svg>