<svg xmlns="http://www.w3.org/2000/svg" width="28" height="28" fill="none" overflow="visible"><g><path d="M 0 28 L 0 14 L 0 0 L 27.821 0 L 27.821 28 Z" fill="transparent"></path><path d="M 18.888 3.097 C 18.378 2.879 18.269 2.225 18.47 1.821 C 18.687 1.37 19.228 1.137 19.691 1.339 C 24.359 3.361 27.497 7.825 27.945 12.819 C 28.409 18.061 25.905 23.054 21.5 25.839 C 16.307 29.105 9.583 28.499 5.039 24.392 C 0.742 20.503 -0.711 14.359 1.453 8.914 C 3.478 3.812 8.439 0.297 14.019 0.219 C 14.56 0.219 15.039 0.374 15.178 0.981 C 15.286 1.448 14.931 2.163 14.359 2.148 C 9.691 2.117 5.472 4.823 3.54 8.961 C 1.453 13.41 2.288 18.621 5.549 22.168 C 9.83 26.819 16.971 27.301 21.809 23.225 C 25.055 20.503 26.631 16.288 25.889 11.994 C 25.225 8.137 22.613 4.73 18.903 3.128 Z" fill="rgb(37,88,180)"></path><path d="M 7.883 14.845 C 7.435 14.456 7.358 13.881 7.698 13.445 C 8.022 13.041 8.656 12.947 9.073 13.321 L 12.86 16.572 L 19.197 9.603 C 19.584 9.167 20.186 9.089 20.604 9.463 C 21.021 9.836 21.036 10.474 20.619 10.925 L 13.648 18.578 C 13.308 18.952 12.736 19.061 12.335 18.703 L 7.868 14.861 Z" fill="rgb(37,88,180)"></path></g></svg>