<svg xmlns="http://www.w3.org/2000/svg" width="64" height="64" fill="none"><path fill="#0AABC8" fill-rule="evenodd" d="M52.317.001c5.975-.097 11.42 5.55 9.161 12.16-2.12 6.209-11.017 16.36-20.378 13.51-3.609-1.099-6.815-3.212-9.24-5.563 1.828-.95 3.397-3.428 4.66-5.007 1.486-1.857 3.068-3.613 4.58-5.497 2.192-2.73 4.175-6.35 7.11-8.33C49.418.455 50.844.243 52.316 0M10.219.4c2.408-.02 4.128.367 5.607 1.271 2.338 1.429 4.317 4.078 6.003 6.2 3.146 3.956 7.267 7.592 9.794 12.08-1.336-.256-2.883-.93-4.66-.637-5.858.967-8.728 5.412-6.95 12.16h-.316l-3.555-3.576c-4.217-4.244-9.309-8.37-12.637-13.431-2.44-3.711-1.364-8.314.948-11.206C5.904 1.443 7.787.58 10.219.399m9.794 31.471c2.786 2.06 7.368 8.26 6.082 13.75-1.121 4.78-3.404 8.676-5.845 12.158-2.294 3.274-6.277 7.962-12.322 5.564-4.076-1.617-7.715-7.125-4.976-12.557 2.104-4.17 7.974-10.23 11.532-13.113 1.896-1.537 4.382-3.565 5.529-5.802" clip-rule="evenodd"/><circle cx="51.5" cy="52.5" r="10.5" fill="#FFE700"/></svg>