<svg width="666" height="706" viewBox="0 0 666 706" fill="none" xmlns="http://www.w3.org/2000/svg">
<path d="M567.586 454.451C556.137 439.969 540.808 428.141 523.257 420.248C506.505 412.712 487.77 408.749 469.009 408.749C468.748 408.749 468.485 408.749 468.224 408.751C457.395 408.818 446.413 411.414 433.657 416.92C418.673 423.388 404.962 433.268 394.008 445.498C383.013 457.766 374.714 472.496 370.006 488.09C365.983 501.418 364.774 515.448 366.42 529.789C367.995 543.515 372.093 556.924 378.605 569.641C385.067 582.266 393.542 593.502 403.79 603.041C414.365 612.879 426.287 620.392 439.234 625.367C450.291 629.618 461.812 631.749 473.646 631.749C479.283 631.749 484.992 631.266 490.753 630.296C504.333 628.013 515.66 624.611 526.4 619.588C545.878 610.479 561.857 596.039 572.604 577.831C581.176 563.313 586.623 547.668 588.797 531.341C592.473 503.701 584.943 476.395 567.59 454.451H567.586ZM587.2 531.127C585.056 547.244 579.678 562.684 571.219 577.017C560.637 594.947 544.9 609.164 525.717 618.137C515.114 623.095 503.916 626.457 490.483 628.714C472.908 631.67 455.857 630.039 439.807 623.869C427.055 618.968 415.305 611.567 404.881 601.868C394.772 592.457 386.411 581.369 380.03 568.91C373.608 556.364 369.561 543.141 368.012 529.605C366.392 515.478 367.58 501.666 371.539 488.55C376.18 473.178 384.361 458.662 395.202 446.565C406.002 434.51 419.521 424.768 434.293 418.391C446.843 412.973 457.629 410.416 468.234 410.352C468.504 410.35 468.774 410.35 469.047 410.35C487.567 410.35 506.066 414.272 522.602 421.708C539.918 429.498 555.037 441.161 566.329 455.445C583.41 477.045 590.823 503.923 587.205 531.127H587.2Z" fill="white"/>
<path fill-rule="evenodd" clip-rule="evenodd" d="M200.007 351.599C200.007 351.599 140.767 289.879 127.607 277.839C114.447 265.799 69.4574 224.019 61.1574 214.259C52.8574 204.499 15.0674 159.849 11.0474 146.089C7.02744 132.329 1.85744 119.129 4.15744 101.089C6.45744 83.0492 14.7274 58.4092 24.1974 45.2392C33.6674 32.0692 50.3175 16.5892 64.3375 12.2992C78.3575 8.0092 96.9374 6.5392 106.987 7.1292C117.037 7.7192 140.187 11.4592 151.667 18.6092C163.147 25.7592 190.087 50.1092 198.387 60.4192C206.687 70.7292 227.357 97.0592 239.937 111.099C252.517 125.149 289.737 165.869 296.047 173.579C302.357 181.289 329.087 219.459 329.087 219.459C329.087 219.459 329.447 220.089 330.447 220.499C331.447 220.909 332.977 222.139 337.287 218.829C345.907 212.219 350.787 207.089 362.817 192.469C374.847 177.849 423.817 119.449 428.117 114.279C432.417 109.109 471.387 54.9592 478.537 46.3692C485.687 37.7792 504.337 17.7792 516.637 13.1692C528.937 8.5592 546.947 1.7392 560.427 2.5692C573.917 3.3992 592.287 6.8292 603.437 12.8492C614.587 18.8692 630.867 26.3492 642.637 43.7992C654.407 61.2592 662.467 74.7692 662.737 93.6492C662.997 112.529 662.097 125.959 654.387 144.019C646.677 162.079 622.627 201.879 609.447 215.059C596.267 228.249 567.897 254.889 546.127 266.629C524.357 278.369 504.867 286.969 475.087 288.399C445.297 289.829 443.837 288.989 423.517 280.669C403.197 272.349 358.497 247.459 346.477 236.559C334.447 225.659 335.107 225.299 332.127 223.769C329.147 222.239 328.147 220.789 325.807 220.219C323.467 219.649 313.977 217.329 313.177 217.189C312.377 217.049 305.287 214.589 295.947 213.799C286.607 213.009 280.127 213.409 276.317 214.059C272.507 214.709 260.597 217.509 257.687 218.499C254.777 219.489 239.587 226.249 236.287 228.419C232.987 230.589 222.907 238.239 220.937 240.159C218.967 242.079 212.287 249.779 209.347 254.719C206.407 259.659 202.087 267.479 200.527 272.889C198.967 278.299 195.267 292.309 195.407 301.699C195.547 311.089 195.907 322.359 197.027 328.999C198.147 335.639 199.737 343.379 200.887 346.799C202.037 350.219 202.497 351.689 203.967 353.219C205.437 354.749 218.947 367.469 218.947 367.469C218.947 367.469 234.207 385.249 235.497 387.249C236.787 389.249 246.567 404.009 246.567 404.009C246.567 404.009 256.867 423.289 259.307 429.119C261.747 434.949 266.807 450.329 267.557 454.379C268.307 458.429 271.307 477.989 270.587 485.019C269.867 492.049 267.477 503.649 266.517 507.939C265.557 512.229 256.767 540.559 254.197 545.989C251.627 551.419 241.047 575.219 237.547 581.219C234.047 587.219 220.477 610.099 217.507 614.569C214.527 619.049 196.687 645.179 191.567 651.319C186.447 657.459 174.867 670.059 171.937 672.829C169.007 675.599 156.967 685.349 152.417 688.119C147.867 690.899 137.117 696.379 132.167 697.929C127.217 699.479 120.917 701.859 111.917 702.579C102.917 703.289 87.8074 703.249 74.5474 698.249C61.2874 693.249 47.5375 685.729 40.7275 679.409C33.9175 673.089 20.1874 659.359 13.8474 645.319C7.50744 631.279 1.54744 613.279 2.62744 600.169C3.70744 587.059 6.48745 569.969 13.6374 557.579C20.7874 545.189 31.8175 528.309 37.8075 520.469C43.7975 512.629 73.3274 478.309 79.9874 471.249C86.6374 464.179 112.827 438.559 120.757 431.529C128.687 424.499 148.997 407.569 148.997 407.569C148.997 407.569 173.517 386.179 179.167 380.269C184.817 374.359 197.917 357.619 198.897 355.059C199.787 352.729 200.047 351.559 200.047 351.559L200.007 351.599Z" stroke="white" stroke-width="5" stroke-miterlimit="10"/>
<path d="M567.586 454.451C556.137 439.969 540.808 428.141 523.257 420.248C506.505 412.712 487.77 408.749 469.009 408.749C468.748 408.749 468.485 408.749 468.224 408.751C457.395 408.818 446.413 411.414 433.657 416.92C418.673 423.388 404.962 433.268 394.008 445.498C383.013 457.766 374.714 472.496 370.006 488.09C365.983 501.418 364.774 515.448 366.42 529.789C367.995 543.515 372.093 556.924 378.605 569.641C385.067 582.266 393.542 593.502 403.79 603.041C414.365 612.879 426.287 620.392 439.234 625.367C450.291 629.618 461.812 631.749 473.646 631.749C479.283 631.749 484.992 631.266 490.753 630.296C504.333 628.013 515.66 624.611 526.4 619.588C545.878 610.479 561.857 596.039 572.604 577.831C581.176 563.313 586.623 547.668 588.797 531.341C592.473 503.701 584.943 476.395 567.59 454.451H567.586ZM587.2 531.127C585.056 547.244 579.678 562.684 571.219 577.017C560.637 594.947 544.9 609.164 525.717 618.137C515.114 623.095 503.916 626.457 490.483 628.714C472.908 631.67 455.857 630.039 439.807 623.869C427.055 618.968 415.305 611.567 404.881 601.868C394.772 592.457 386.411 581.369 380.03 568.91C373.608 556.364 369.561 543.141 368.012 529.605C366.392 515.478 367.58 501.666 371.539 488.55C376.18 473.178 384.361 458.662 395.202 446.565C406.002 434.51 419.521 424.768 434.293 418.391C446.843 412.973 457.629 410.416 468.234 410.352C468.504 410.35 468.774 410.35 469.047 410.35C487.567 410.35 506.066 414.272 522.602 421.708C539.918 429.498 555.037 441.161 566.329 455.445C583.41 477.045 590.823 503.923 587.205 531.127H587.2Z" stroke="white" stroke-width="5" stroke-miterlimit="10"/>
</svg>
