<svg xmlns="http://www.w3.org/2000/svg" width="103" height="40" fill="none"><path d="M 99.17 0 C 101.533 -0.038 103.687 2.184 102.794 4.784 C 101.955 7.227 98.436 11.22 94.734 10.099 C 93.307 9.667 92.039 8.836 91.08 7.911 C 91.803 7.537 92.423 6.562 92.923 5.941 C 93.51 5.21 94.136 4.519 94.734 3.778 C 95.601 2.704 96.385 1.28 97.546 0.501 C 98.024 0.179 98.588 0.096 99.17 0 Z M 82.521 0.157 C 83.473 0.149 84.153 0.301 84.738 0.657 C 85.663 1.219 86.445 2.261 87.112 3.096 C 88.357 4.652 89.986 6.083 90.986 7.848 C 90.457 7.748 89.846 7.483 89.143 7.598 C 86.826 7.978 85.691 9.727 86.394 12.381 L 86.269 12.381 C 85.8 11.913 85.332 11.444 84.863 10.975 C 83.195 9.305 81.182 7.682 79.865 5.691 C 78.9 4.231 79.326 2.42 80.24 1.282 C 80.814 0.568 81.559 0.229 82.521 0.157 Z M 19.296 0.813 L 25.512 0.813 L 25.512 17.603 C 25.512 20.654 25.795 24.245 25.075 26.67 C 24.207 29.593 22.559 31.744 20.233 33.204 C 16.518 35.536 8.838 35.814 4.833 33.454 C 3.734 32.807 2.822 32.192 1.959 31.328 C 1.77 31.139 1.122 30.643 1.303 30.422 C 2.573 28.91 3.844 27.399 5.114 25.888 L 5.364 26.107 C 6.305 28.044 11.758 30.166 14.954 28.921 C 17.804 27.81 19.221 25.599 19.202 21.573 L 19.14 21.605 C 18.964 22.102 18.536 22.447 18.234 22.824 C 16.382 25.135 11.894 25.999 8.206 24.731 C 4.509 23.46 1.834 20.603 0.647 16.821 C 0.337 15.835 0.276 14.782 0.085 13.632 C -0.221 11.795 0.368 9.517 0.803 8.286 C 2.101 4.616 4.627 1.872 8.394 0.688 C 9.195 0.436 9.971 0.405 10.924 0.251 C 12.343 0.021 14.078 0.272 15.204 0.626 C 16.55 1.049 17.735 1.936 18.515 2.939 L 19.296 4.096 Z M 39.631 0.188 C 46.08 0.103 49.674 3.677 51.47 8.286 C 52.126 9.967 52.746 13.074 52.095 15.289 L 33.946 15.289 C 34.276 17.463 35.987 19.254 37.913 19.854 C 41.384 20.935 44.731 19.023 45.879 16.853 L 45.941 16.915 C 47.555 18.114 49.169 19.312 50.783 20.51 C 50.551 21.468 48.919 22.723 48.159 23.262 C 45.562 25.103 41.02 26.524 36.633 25.388 C 34.608 24.864 33.049 23.92 31.635 22.793 C 28.77 20.51 26.357 15.201 27.73 9.818 C 28.416 7.126 29.838 4.699 31.728 3.19 C 33.099 2.095 34.566 1.199 36.476 0.626 L 38.569 0.251 Z M 65.09 0.188 C 71.538 0.103 75.133 3.677 76.929 8.286 C 77.584 9.967 78.204 13.074 77.554 15.289 L 59.405 15.289 C 59.735 17.463 61.445 19.254 63.372 19.854 C 66.843 20.935 70.19 19.023 71.338 16.853 L 71.4 16.915 C 73.014 18.114 74.628 19.312 76.242 20.51 C 76.01 21.468 74.377 22.723 73.618 23.262 C 71.021 25.103 66.479 26.524 62.091 25.388 C 60.067 24.864 58.507 23.92 57.093 22.793 C 54.229 20.51 51.816 15.201 53.189 9.818 C 53.875 7.126 55.297 4.699 57.187 3.19 C 58.558 2.095 60.025 1.199 61.935 0.626 L 64.028 0.251 Z M 39.663 5.628 C 39.008 5.63 38.255 5.771 37.664 6.003 C 36.001 6.656 34.175 8.492 33.946 10.537 L 45.91 10.537 L 45.91 10.443 C 45 7.753 43.25 5.624 39.663 5.628 Z M 65.121 5.628 C 64.428 5.611 63.714 5.771 63.122 6.003 C 61.46 6.656 59.634 8.492 59.405 10.537 L 71.369 10.537 L 71.369 10.443 C 70.458 7.753 68.709 5.624 65.121 5.628 Z M 12.299 5.972 C 11.61 5.946 10.894 6.144 10.299 6.379 C 8.625 7.039 7.489 8.359 6.832 10.037 C 4.867 15.053 8.723 20.489 14.142 19.447 C 15.261 19.232 16.187 18.886 16.953 18.322 C 19.043 16.783 20.29 12.902 18.89 9.693 C 17.823 7.247 15.867 5.954 12.299 5.972 Z M 86.394 12.538 C 87.496 13.348 89.308 15.787 88.799 17.947 C 88.356 19.827 87.453 21.36 86.488 22.73 C 85.58 24.018 84.005 25.862 81.615 24.919 C 80.002 24.283 78.563 22.116 79.647 19.979 C 80.479 18.338 82.8 15.954 84.207 14.82 C 84.957 14.216 85.941 13.418 86.394 12.538 Z M 98.389 16.602 C 101.487 16.554 103.939 19.281 102.606 22.386 C 102.01 23.776 100.83 24.667 99.108 24.888 C 96.265 25.251 93.905 22.103 94.859 19.385 C 95.256 18.254 96.145 17.323 97.233 16.884 C 97.598 16.719 97.99 16.624 98.389 16.602 Z" fill="rgb(37,88,180)"></path><path d="M 32.59 33.236 L 31.178 38.111 L 30.465 38.111 L 29.332 34.187 L 28.158 38.111 L 27.452 38.118 L 26.089 33.236 L 26.767 33.236 L 27.83 37.37 L 29.004 33.236 L 29.717 33.236 L 30.835 37.356 L 31.904 33.236 Z" fill="rgb(37,88,180)"></path><path d="M 36.78 36.048 C 36.78 36.169 36.773 36.297 36.759 36.433 L 33.698 36.433 C 33.721 36.81 33.849 37.106 34.082 37.321 C 34.32 37.531 34.606 37.636 34.942 37.636 C 35.217 37.636 35.445 37.573 35.627 37.447 C 35.813 37.316 35.944 37.144 36.018 36.929 L 36.703 36.929 C 36.601 37.298 36.396 37.598 36.088 37.832 C 35.781 38.06 35.399 38.174 34.942 38.174 C 34.578 38.174 34.252 38.093 33.964 37.929 C 33.679 37.766 33.456 37.535 33.292 37.237 C 33.129 36.934 33.048 36.584 33.048 36.188 C 33.048 35.791 33.127 35.444 33.285 35.146 C 33.444 34.847 33.665 34.619 33.95 34.46 C 34.238 34.297 34.569 34.215 34.942 34.215 C 35.305 34.215 35.627 34.294 35.907 34.453 C 36.186 34.612 36.4 34.831 36.55 35.111 C 36.703 35.386 36.78 35.698 36.78 36.048 Z M 36.123 35.915 C 36.123 35.673 36.07 35.465 35.962 35.293 C 35.855 35.115 35.708 34.982 35.522 34.894 C 35.34 34.801 35.138 34.754 34.914 34.754 C 34.593 34.754 34.318 34.857 34.089 35.062 C 33.866 35.267 33.738 35.551 33.705 35.915 Z" fill="rgb(37,88,180)"></path><path d="M 39.245 36.181 C 39.245 35.789 39.325 35.446 39.483 35.153 C 39.641 34.854 39.858 34.623 40.133 34.46 C 40.413 34.297 40.725 34.215 41.07 34.215 C 41.368 34.215 41.645 34.285 41.901 34.425 C 42.158 34.56 42.353 34.74 42.488 34.964 L 42.488 32.935 L 43.131 32.935 L 43.131 38.111 L 42.488 38.111 L 42.488 37.391 C 42.363 37.619 42.176 37.808 41.929 37.958 C 41.682 38.102 41.393 38.174 41.063 38.174 C 40.722 38.174 40.413 38.09 40.133 37.922 C 39.858 37.755 39.641 37.519 39.483 37.216 C 39.325 36.913 39.245 36.568 39.245 36.181 Z M 42.488 36.188 C 42.488 35.899 42.43 35.647 42.314 35.432 C 42.197 35.218 42.039 35.055 41.838 34.943 C 41.643 34.826 41.426 34.768 41.188 34.768 C 40.951 34.768 40.734 34.824 40.538 34.936 C 40.343 35.048 40.187 35.211 40.07 35.425 C 39.954 35.64 39.895 35.892 39.895 36.181 C 39.895 36.475 39.954 36.731 40.07 36.95 C 40.187 37.165 40.343 37.33 40.538 37.447 C 40.734 37.559 40.951 37.615 41.188 37.615 C 41.426 37.615 41.643 37.559 41.838 37.447 C 42.039 37.33 42.197 37.165 42.314 36.95 C 42.43 36.731 42.488 36.477 42.488 36.188 Z" fill="rgb(37,88,180)"></path><path d="M 47.701 36.048 C 47.701 36.169 47.694 36.297 47.68 36.433 L 44.619 36.433 C 44.642 36.81 44.77 37.106 45.003 37.321 C 45.241 37.531 45.527 37.636 45.863 37.636 C 46.138 37.636 46.366 37.573 46.548 37.447 C 46.734 37.316 46.864 37.144 46.939 36.929 L 47.624 36.929 C 47.522 37.298 47.316 37.598 47.009 37.832 C 46.701 38.06 46.319 38.174 45.863 38.174 C 45.499 38.174 45.173 38.093 44.884 37.929 C 44.6 37.766 44.376 37.535 44.213 37.237 C 44.05 36.934 43.969 36.584 43.969 36.188 C 43.969 35.791 44.048 35.444 44.206 35.146 C 44.365 34.847 44.586 34.619 44.87 34.46 C 45.159 34.297 45.49 34.215 45.863 34.215 C 46.226 34.215 46.548 34.294 46.827 34.453 C 47.107 34.612 47.321 34.831 47.47 35.111 C 47.624 35.386 47.701 35.698 47.701 36.048 Z M 47.044 35.915 C 47.044 35.673 46.99 35.465 46.883 35.293 C 46.776 35.115 46.629 34.982 46.443 34.894 C 46.261 34.801 46.058 34.754 45.835 34.754 C 45.513 34.754 45.238 34.857 45.01 35.062 C 44.786 35.267 44.658 35.551 44.626 35.915 Z" fill="rgb(37,88,180)"></path><path d="M 49.896 38.174 C 49.603 38.174 49.34 38.125 49.106 38.028 C 48.874 37.925 48.69 37.785 48.554 37.608 C 48.419 37.426 48.345 37.218 48.331 36.985 L 48.988 36.985 C 49.006 37.176 49.095 37.333 49.253 37.454 C 49.416 37.575 49.628 37.636 49.889 37.636 C 50.132 37.636 50.323 37.582 50.462 37.475 C 50.602 37.368 50.672 37.232 50.672 37.069 C 50.672 36.901 50.598 36.778 50.449 36.698 C 50.299 36.614 50.069 36.533 49.757 36.454 C 49.472 36.379 49.239 36.304 49.058 36.23 C 48.88 36.151 48.727 36.036 48.596 35.887 C 48.471 35.733 48.408 35.533 48.408 35.285 C 48.408 35.09 48.466 34.91 48.582 34.747 C 48.699 34.584 48.864 34.455 49.079 34.362 C 49.293 34.264 49.538 34.215 49.813 34.215 C 50.236 34.215 50.579 34.322 50.84 34.537 C 51.101 34.752 51.241 35.045 51.259 35.418 L 50.623 35.418 C 50.609 35.218 50.528 35.057 50.379 34.936 C 50.234 34.815 50.038 34.754 49.791 34.754 C 49.563 34.754 49.381 34.803 49.246 34.901 C 49.111 34.999 49.044 35.127 49.044 35.285 C 49.044 35.411 49.083 35.516 49.162 35.6 C 49.246 35.679 49.349 35.745 49.47 35.796 C 49.596 35.843 49.768 35.896 49.987 35.957 C 50.262 36.032 50.486 36.106 50.658 36.181 C 50.831 36.251 50.977 36.358 51.099 36.503 C 51.224 36.647 51.289 36.836 51.294 37.069 C 51.294 37.279 51.236 37.468 51.119 37.636 C 51.003 37.804 50.837 37.937 50.623 38.034 C 50.413 38.128 50.171 38.174 49.896 38.174 Z" fill="rgb(37,88,180)"></path><path d="M 52.52 33.656 C 52.399 33.656 52.297 33.614 52.213 33.53 C 52.129 33.446 52.087 33.343 52.087 33.222 C 52.087 33.101 52.129 32.998 52.213 32.914 C 52.297 32.83 52.399 32.788 52.52 32.788 C 52.637 32.788 52.735 32.83 52.814 32.914 C 52.898 32.998 52.94 33.101 52.94 33.222 C 52.94 33.343 52.898 33.446 52.814 33.53 C 52.735 33.614 52.637 33.656 52.52 33.656 Z M 52.828 34.278 L 52.828 38.111 L 52.192 38.111 L 52.192 34.278 Z" fill="rgb(37,88,180)"></path><path d="M 55.492 34.215 C 55.822 34.215 56.111 34.288 56.358 34.432 C 56.61 34.577 56.796 34.758 56.917 34.978 L 56.917 34.278 L 57.56 34.278 L 57.56 38.195 C 57.56 38.545 57.486 38.855 57.337 39.126 C 57.188 39.401 56.973 39.615 56.694 39.769 C 56.419 39.923 56.097 40 55.729 40 C 55.226 40 54.807 39.881 54.471 39.643 C 54.136 39.405 53.938 39.081 53.877 38.671 L 54.506 38.671 C 54.576 38.904 54.721 39.091 54.94 39.231 C 55.158 39.375 55.422 39.447 55.729 39.447 C 56.079 39.447 56.363 39.338 56.582 39.119 C 56.806 38.9 56.917 38.592 56.917 38.195 L 56.917 37.391 C 56.792 37.615 56.605 37.801 56.358 37.95 C 56.111 38.1 55.822 38.174 55.492 38.174 C 55.151 38.174 54.842 38.09 54.562 37.922 C 54.287 37.755 54.071 37.519 53.912 37.216 C 53.754 36.913 53.674 36.568 53.674 36.181 C 53.674 35.789 53.754 35.446 53.912 35.153 C 54.071 34.854 54.287 34.623 54.562 34.46 C 54.842 34.297 55.151 34.215 55.492 34.215 Z M 56.917 36.188 C 56.917 35.899 56.859 35.647 56.743 35.432 C 56.626 35.218 56.468 35.055 56.267 34.943 C 56.072 34.826 55.855 34.768 55.617 34.768 C 55.38 34.768 55.163 34.824 54.967 34.936 C 54.772 35.048 54.616 35.211 54.499 35.425 C 54.383 35.64 54.324 35.892 54.324 36.181 C 54.324 36.475 54.383 36.731 54.499 36.95 C 54.616 37.165 54.772 37.33 54.967 37.447 C 55.163 37.559 55.38 37.615 55.617 37.615 C 55.855 37.615 56.072 37.559 56.267 37.447 C 56.468 37.33 56.626 37.165 56.743 36.95 C 56.859 36.731 56.917 36.477 56.917 36.188 Z" fill="rgb(37,88,180)"></path><path d="M 60.501 34.208 C 60.967 34.208 61.345 34.35 61.634 34.635 C 61.922 34.915 62.067 35.321 62.067 35.852 L 62.067 38.111 L 61.438 38.111 L 61.438 35.943 C 61.438 35.561 61.342 35.269 61.151 35.069 C 60.96 34.864 60.699 34.761 60.369 34.761 C 60.033 34.761 59.765 34.866 59.565 35.076 C 59.369 35.285 59.271 35.591 59.271 35.992 L 59.271 38.111 L 58.635 38.111 L 58.635 34.278 L 59.271 34.278 L 59.271 34.824 C 59.397 34.628 59.567 34.476 59.782 34.369 C 60.001 34.262 60.24 34.208 60.501 34.208 Z" fill="rgb(37,88,180)"></path><path d="M 68.464 36.048 C 68.464 36.169 68.457 36.297 68.443 36.433 L 65.382 36.433 C 65.405 36.81 65.533 37.106 65.766 37.321 C 66.004 37.531 66.29 37.636 66.626 37.636 C 66.901 37.636 67.129 37.573 67.311 37.447 C 67.497 37.316 67.627 37.144 67.702 36.929 L 68.387 36.929 C 68.284 37.298 68.079 37.598 67.772 37.832 C 67.465 38.06 67.082 38.174 66.626 38.174 C 66.262 38.174 65.936 38.093 65.647 37.929 C 65.363 37.766 65.139 37.535 64.976 37.237 C 64.813 36.934 64.732 36.584 64.732 36.188 C 64.732 35.791 64.811 35.444 64.969 35.146 C 65.128 34.847 65.349 34.619 65.633 34.46 C 65.922 34.297 66.253 34.215 66.626 34.215 C 66.989 34.215 67.311 34.294 67.59 34.453 C 67.87 34.612 68.084 34.831 68.233 35.111 C 68.387 35.386 68.464 35.698 68.464 36.048 Z M 67.807 35.915 C 67.807 35.673 67.753 35.465 67.646 35.293 C 67.539 35.115 67.392 34.982 67.206 34.894 C 67.024 34.801 66.821 34.754 66.598 34.754 C 66.276 34.754 66.001 34.857 65.773 35.062 C 65.549 35.267 65.421 35.551 65.389 35.915 Z" fill="rgb(37,88,180)"></path><path d="M 71.302 38.111 L 70.394 36.684 L 69.52 38.111 L 68.856 38.111 L 70.093 36.209 L 68.856 34.278 L 69.576 34.278 L 70.485 35.698 L 71.351 34.278 L 72.015 34.278 L 70.785 36.174 L 72.022 38.111 Z" fill="rgb(37,88,180)"></path><path d="M 73.284 34.985 C 73.41 34.766 73.596 34.584 73.843 34.439 C 74.095 34.29 74.386 34.215 74.717 34.215 C 75.057 34.215 75.364 34.297 75.639 34.46 C 75.919 34.623 76.138 34.854 76.296 35.153 C 76.455 35.446 76.534 35.789 76.534 36.181 C 76.534 36.568 76.455 36.913 76.296 37.216 C 76.138 37.519 75.919 37.755 75.639 37.922 C 75.364 38.09 75.057 38.174 74.717 38.174 C 74.391 38.174 74.102 38.102 73.85 37.958 C 73.603 37.808 73.414 37.624 73.284 37.405 L 73.284 39.93 L 72.648 39.93 L 72.648 34.278 L 73.284 34.278 Z M 75.884 36.181 C 75.884 35.892 75.826 35.64 75.709 35.425 C 75.593 35.211 75.434 35.048 75.234 34.936 C 75.038 34.824 74.822 34.768 74.584 34.768 C 74.351 34.768 74.134 34.826 73.934 34.943 C 73.738 35.055 73.58 35.22 73.459 35.439 C 73.342 35.654 73.284 35.903 73.284 36.188 C 73.284 36.477 73.342 36.731 73.459 36.95 C 73.58 37.165 73.738 37.33 73.934 37.447 C 74.134 37.559 74.351 37.615 74.584 37.615 C 74.822 37.615 75.038 37.559 75.234 37.447 C 75.434 37.33 75.593 37.165 75.709 36.95 C 75.826 36.731 75.884 36.475 75.884 36.181 Z" fill="rgb(37,88,180)"></path><path d="M 80.866 36.048 C 80.866 36.169 80.859 36.297 80.845 36.433 L 77.784 36.433 C 77.807 36.81 77.935 37.106 78.168 37.321 C 78.406 37.531 78.692 37.636 79.028 37.636 C 79.302 37.636 79.531 37.573 79.713 37.447 C 79.899 37.316 80.029 37.144 80.104 36.929 L 80.789 36.929 C 80.686 37.298 80.481 37.598 80.174 37.832 C 79.866 38.06 79.484 38.174 79.028 38.174 C 78.664 38.174 78.338 38.093 78.049 37.929 C 77.765 37.766 77.541 37.535 77.378 37.237 C 77.215 36.934 77.133 36.584 77.133 36.188 C 77.133 35.791 77.213 35.444 77.371 35.146 C 77.53 34.847 77.751 34.619 78.035 34.46 C 78.324 34.297 78.655 34.215 79.028 34.215 C 79.391 34.215 79.713 34.294 79.992 34.453 C 80.272 34.612 80.486 34.831 80.635 35.111 C 80.789 35.386 80.866 35.698 80.866 36.048 Z M 80.209 35.915 C 80.209 35.673 80.155 35.465 80.048 35.293 C 79.941 35.115 79.794 34.982 79.608 34.894 C 79.426 34.801 79.223 34.754 79 34.754 C 78.678 34.754 78.403 34.857 78.175 35.062 C 77.951 35.267 77.823 35.551 77.791 35.915 Z" fill="rgb(37,88,180)"></path><path d="M 82.341 34.901 C 82.453 34.682 82.612 34.511 82.817 34.39 C 83.026 34.269 83.28 34.208 83.578 34.208 L 83.578 34.866 L 83.411 34.866 C 82.698 34.866 82.341 35.253 82.341 36.027 L 82.341 38.111 L 81.705 38.111 L 81.705 34.278 L 82.341 34.278 Z" fill="rgb(37,88,180)"></path><path d="M 84.641 33.656 C 84.52 33.656 84.418 33.614 84.334 33.53 C 84.25 33.446 84.208 33.343 84.208 33.222 C 84.208 33.101 84.25 32.998 84.334 32.914 C 84.418 32.83 84.52 32.788 84.641 32.788 C 84.758 32.788 84.856 32.83 84.935 32.914 C 85.019 32.998 85.061 33.101 85.061 33.222 C 85.061 33.343 85.019 33.446 84.935 33.53 C 84.856 33.614 84.758 33.656 84.641 33.656 Z M 84.949 34.278 L 84.949 38.111 L 84.313 38.111 L 84.313 34.278 Z" fill="rgb(37,88,180)"></path><path d="M 89.527 36.048 C 89.527 36.169 89.52 36.297 89.506 36.433 L 86.445 36.433 C 86.468 36.81 86.597 37.106 86.829 37.321 C 87.067 37.531 87.354 37.636 87.689 37.636 C 87.964 37.636 88.192 37.573 88.374 37.447 C 88.56 37.316 88.691 37.144 88.766 36.929 L 89.45 36.929 C 89.348 37.298 89.143 37.598 88.835 37.832 C 88.528 38.06 88.146 38.174 87.689 38.174 C 87.326 38.174 86.999 38.093 86.711 37.929 C 86.426 37.766 86.203 37.535 86.04 37.237 C 85.877 36.934 85.795 36.584 85.795 36.188 C 85.795 35.791 85.874 35.444 86.033 35.146 C 86.191 34.847 86.412 34.619 86.697 34.46 C 86.986 34.297 87.316 34.215 87.689 34.215 C 88.053 34.215 88.374 34.294 88.654 34.453 C 88.933 34.612 89.147 34.831 89.297 35.111 C 89.45 35.386 89.527 35.698 89.527 36.048 Z M 88.87 35.915 C 88.87 35.673 88.817 35.465 88.71 35.293 C 88.602 35.115 88.456 34.982 88.269 34.894 C 88.088 34.801 87.885 34.754 87.661 34.754 C 87.34 34.754 87.065 34.857 86.836 35.062 C 86.613 35.267 86.485 35.551 86.452 35.915 Z" fill="rgb(37,88,180)"></path><path d="M 92.233 34.208 C 92.699 34.208 93.076 34.35 93.365 34.635 C 93.654 34.915 93.799 35.321 93.799 35.852 L 93.799 38.111 L 93.169 38.111 L 93.169 35.943 C 93.169 35.561 93.074 35.269 92.883 35.069 C 92.692 34.864 92.431 34.761 92.1 34.761 C 91.765 34.761 91.497 34.866 91.296 35.076 C 91.101 35.285 91.003 35.591 91.003 35.992 L 91.003 38.111 L 90.367 38.111 L 90.367 34.278 L 91.003 34.278 L 91.003 34.824 C 91.129 34.628 91.299 34.476 91.513 34.369 C 91.732 34.262 91.972 34.208 92.233 34.208 Z" fill="rgb(37,88,180)"></path><path d="M 94.6 36.188 C 94.6 35.791 94.679 35.446 94.838 35.153 C 94.996 34.854 95.215 34.623 95.495 34.46 C 95.779 34.297 96.103 34.215 96.466 34.215 C 96.937 34.215 97.323 34.33 97.626 34.558 C 97.934 34.786 98.136 35.104 98.234 35.509 L 97.549 35.509 C 97.484 35.276 97.356 35.092 97.165 34.957 C 96.979 34.822 96.746 34.754 96.466 34.754 C 96.103 34.754 95.809 34.88 95.585 35.132 C 95.362 35.379 95.25 35.731 95.25 36.188 C 95.25 36.65 95.362 37.006 95.585 37.258 C 95.809 37.51 96.103 37.636 96.466 37.636 C 96.746 37.636 96.979 37.571 97.165 37.44 C 97.351 37.309 97.479 37.123 97.549 36.88 L 98.234 36.88 C 98.132 37.272 97.927 37.587 97.619 37.825 C 97.312 38.058 96.927 38.174 96.466 38.174 C 96.103 38.174 95.779 38.093 95.495 37.929 C 95.215 37.766 94.996 37.535 94.838 37.237 C 94.679 36.939 94.6 36.589 94.6 36.188 Z" fill="rgb(37,88,180)"></path><path d="M 102.578 36.048 C 102.578 36.169 102.571 36.297 102.557 36.433 L 99.495 36.433 C 99.519 36.81 99.647 37.106 99.88 37.321 C 100.117 37.531 100.404 37.636 100.739 37.636 C 101.014 37.636 101.243 37.573 101.424 37.447 C 101.611 37.316 101.741 37.144 101.816 36.929 L 102.501 36.929 C 102.398 37.298 102.193 37.598 101.886 37.832 C 101.578 38.06 101.196 38.174 100.739 38.174 C 100.376 38.174 100.05 38.093 99.761 37.929 C 99.477 37.766 99.253 37.535 99.09 37.237 C 98.927 36.934 98.845 36.584 98.845 36.188 C 98.845 35.791 98.924 35.444 99.083 35.146 C 99.241 34.847 99.463 34.619 99.747 34.46 C 100.036 34.297 100.367 34.215 100.739 34.215 C 101.103 34.215 101.424 34.294 101.704 34.453 C 101.983 34.612 102.198 34.831 102.347 35.111 C 102.501 35.386 102.578 35.698 102.578 36.048 Z M 101.921 35.915 C 101.921 35.673 101.867 35.465 101.76 35.293 C 101.653 35.115 101.506 34.982 101.32 34.894 C 101.138 34.801 100.935 34.754 100.711 34.754 C 100.39 34.754 100.115 34.857 99.887 35.062 C 99.663 35.267 99.535 35.551 99.502 35.915 Z" fill="rgb(37,88,180)"></path></svg>