<svg width="21" height="34" viewBox="0 0 21 34" fill="none" xmlns="http://www.w3.org/2000/svg">
<g clip-path="url(#clip0_12_14)">
<path d="M7.21317 3.02246C6.83993 2.64616 6.31936 2.41375 5.74063 2.41375C5.16403 2.41375 4.64748 2.64616 4.27867 3.02246H4.268C3.89599 3.39704 3.66442 3.9198 3.66442 4.49854C3.66442 5.07934 3.89599 5.59773 4.26809 5.97009L4.27867 5.97848C4.64748 6.35306 5.16403 6.58324 5.74063 6.58324C6.31936 6.58324 6.84001 6.35298 7.21317 5.97848L7.21875 5.97017C7.59265 5.59782 7.82201 5.07942 7.82201 4.49854C7.82201 3.91988 7.59265 3.39704 7.21875 3.02254L7.21317 3.02246ZM5.74063 31.5594C6.29195 31.5599 6.82115 31.3419 7.21317 30.9528L7.21867 30.9418C7.59257 30.5724 7.82193 30.0496 7.82193 29.475C7.82193 28.8942 7.59257 28.3735 7.21867 27.9972H7.21317C6.83993 27.6164 6.31936 27.3863 5.74063 27.3863C5.16403 27.3863 4.64748 27.6164 4.27867 27.9972H4.268C3.89599 28.3735 3.66442 28.8942 3.66442 29.475C3.66442 30.0497 3.89599 30.5724 4.26809 30.9418L4.27867 30.9528C4.4706 31.1455 4.69854 31.2983 4.94941 31.4023C5.20029 31.5064 5.46916 31.5598 5.74063 31.5594ZM17.0586 25.2435C17.5734 25.108 18.0395 24.7765 18.3238 24.2753L18.3622 24.2022C18.615 23.7267 18.6611 23.1781 18.5261 22.6921C18.39 22.1715 18.0557 21.711 17.5573 21.4228L17.5284 21.4033C17.043 21.1364 16.4898 21.0784 15.9816 21.2161C15.465 21.3453 15.0011 21.6915 14.7183 22.1887C14.4318 22.681 14.3719 23.249 14.5091 23.7718C14.6506 24.2859 14.9817 24.7507 15.4768 25.0411H15.48C15.9761 25.3272 16.5381 25.379 17.0586 25.2435ZM7.87254 14.8503C7.3267 14.3039 6.57448 13.9617 5.74071 13.9617C4.91023 13.9617 4.1598 14.3039 3.61512 14.8503C3.07289 15.3948 2.73853 16.1477 2.73853 16.9823C2.73853 17.8191 3.07289 18.5744 3.61512 19.1251C4.1598 19.667 4.91023 20.007 5.74071 20.007C6.57448 20.007 7.3267 19.667 7.87254 19.1251C8.41583 18.5744 8.75027 17.8191 8.75027 16.9823C8.75027 16.1478 8.41583 15.3948 7.87254 14.8503ZM6.67406 11.2968C7.88205 11.4965 8.96897 12.0774 9.79839 12.9164H9.80495C9.93811 13.0514 10.0647 13.1928 10.1843 13.3401L12.2584 12.1358C11.9796 11.2902 11.9668 10.4061 12.1907 9.57779C12.4867 8.46748 13.2038 7.47358 14.2786 6.84981L14.3141 6.8284C15.3773 6.22373 16.5861 6.09893 17.6774 6.39595C18.2464 6.54847 18.7799 6.81229 19.247 7.17226C19.7142 7.53223 20.1059 7.98127 20.3997 8.49358V8.49572C21.0173 9.56717 21.1428 10.7975 20.8479 11.9034C20.5542 13.0129 19.8338 14.0134 18.76 14.6328L18.4768 14.801H18.4479C17.4546 15.2761 16.3622 15.3496 15.359 15.0848C14.5351 14.8652 13.7793 14.4048 13.1877 13.7487L11.117 14.9494C11.3618 15.599 11.4872 16.2878 11.4868 16.9823C11.4866 17.6803 11.3613 18.3725 11.1169 19.0259L13.1877 20.2221C13.7793 19.5576 14.5351 19.1056 15.359 18.8861C16.4639 18.5828 17.6891 18.712 18.7601 19.338L18.8284 19.3704V19.3747C19.863 20.0026 20.5574 20.9752 20.8479 22.0723C20.9998 22.6413 21.0384 23.2348 20.9615 23.8189C20.8846 24.4029 20.6937 24.966 20.3997 25.4759L20.3625 25.5511L20.358 25.5445C19.7375 26.5796 18.7601 27.2808 17.6807 27.5775C16.5733 27.8701 15.3484 27.7453 14.2786 27.1281V27.1193C13.2038 26.4955 12.4867 25.4993 12.1907 24.3917C11.9668 23.5655 11.9796 22.681 12.2584 21.8358L10.1843 20.6352C10.0654 20.7817 9.93661 20.9194 9.80495 21.0527L9.79839 21.0589C8.96905 21.8939 7.88205 22.4747 6.67398 22.6682V25.0735C7.53482 25.2541 8.3064 25.6866 8.91122 26.2932L8.91409 26.2998C9.72456 27.1086 10.2261 28.2358 10.2261 29.475C10.2261 30.7102 9.72448 31.8303 8.91409 32.6436L8.91122 32.6565C8.09534 33.4697 6.97545 33.9731 5.74071 33.9731C4.51254 33.9731 3.39117 33.4697 2.57759 32.6565H2.57463V32.6436C1.7631 31.8303 1.26049 30.7102 1.26049 29.475C1.25969 28.8848 1.37541 28.3004 1.60097 27.7554C1.82653 27.2104 2.15746 26.7157 2.57463 26.2998V26.2932H2.5775C3.18125 25.6866 3.95391 25.2541 4.81253 25.0735V22.6682C3.60339 22.4747 2.51975 21.8939 1.6914 21.0589L1.68262 21.0527C0.647227 20.0092 0 18.5744 0 16.9823C0 15.3948 0.647227 13.9598 1.68254 12.9164H1.69132C2.51967 12.0775 3.6033 11.4965 4.81245 11.2968V8.90224C3.96658 8.71714 3.19109 8.29316 2.57742 7.6803H2.57455V7.67371C1.76302 6.85639 1.26041 5.7376 1.26041 4.49846C1.26041 3.26556 1.76302 2.13616 2.57455 1.32287L2.57742 1.31884C3.39117 0.503414 4.51254 0 5.74055 0C6.97536 0 8.09525 0.503414 8.91105 1.31884V1.32295H8.91401C9.72448 2.13616 10.226 3.26556 10.226 4.49846C10.226 5.7376 9.72439 6.85639 8.91401 7.67371L8.91114 7.6803C8.30632 8.28283 7.53473 8.71495 6.6739 8.90224L6.67406 11.2968ZM18.3239 9.70037L18.3067 9.67469C18.0202 9.19046 17.5636 8.86766 17.0587 8.72779C16.5382 8.59015 15.9762 8.64851 15.4768 8.93451H15.4801C14.9818 9.21836 14.6485 9.68317 14.5091 10.2038C14.4385 10.4685 14.4206 10.7446 14.4565 11.0163C14.4924 11.288 14.5814 11.5499 14.7184 11.787L14.7279 11.8001C14.8642 12.0339 15.045 12.2383 15.2602 12.4018C15.4753 12.5652 15.7205 12.6845 15.9817 12.7526C16.2446 12.8263 16.5195 12.8462 16.7902 12.8111C17.0609 12.776 17.3218 12.6867 17.5575 12.5485L17.5841 12.5356C18.0685 12.2452 18.3912 11.787 18.5262 11.2836C18.6634 10.7652 18.6089 10.1972 18.3239 9.70037Z" fill="#FFE700"/>
</g>
<defs>
<clipPath id="clip0_12_14">
<rect width="21" height="34" fill="white"/>
</clipPath>
</defs>
</svg>
