<svg xmlns="http://www.w3.org/2000/svg" width="32.891" height="34.524" fill="none" overflow="visible"><path d="M 27.582 0.001 C 30.857 -0.052 33.842 2.994 32.605 6.56 C 31.442 9.909 26.565 15.385 21.434 13.848 C 19.455 13.255 17.697 12.115 16.368 10.847 C 17.37 10.334 18.23 8.998 18.923 8.146 C 19.737 7.144 20.605 6.197 21.434 5.181 C 22.635 3.708 23.722 1.756 25.33 0.687 C 25.994 0.246 26.775 0.132 27.582 0.001 Z M 4.505 0.215 C 5.825 0.204 6.768 0.413 7.579 0.901 C 8.86 1.672 9.945 3.101 10.87 4.245 C 12.594 6.379 14.853 8.341 16.238 10.761 C 15.506 10.624 14.658 10.26 13.684 10.418 C 10.473 10.94 8.899 13.338 9.874 16.977 L 9.701 16.977 C 9.051 16.334 8.402 15.691 7.752 15.048 C 5.44 12.759 2.649 10.534 0.825 7.803 C -0.512 5.802 0.077 3.319 1.345 1.758 C 2.14 0.779 3.172 0.314 4.505 0.215 Z M 9.874 17.192 C 11.401 18.303 13.913 21.648 13.208 24.609 C 12.594 27.187 11.342 29.289 10.004 31.167 C 8.746 32.933 6.563 35.462 3.25 34.169 C 1.015 33.296 -0.979 30.325 0.522 27.395 C 1.675 25.145 4.893 21.877 6.843 20.322 C 7.883 19.492 9.246 18.398 9.874 17.192 Z M 26.5 22.765 C 30.793 22.699 34.192 26.437 32.344 30.696 C 31.518 32.602 29.882 33.823 27.495 34.126 C 23.556 34.624 20.284 30.308 21.607 26.58 C 22.157 25.03 23.388 23.753 24.898 23.151 C 25.403 22.926 25.946 22.795 26.5 22.765 Z" fill="rgb(37,88,180)"></path></svg>