<svg xmlns="http://www.w3.org/2000/svg" width="83.247" height="86.967" fill="none" overflow="visible"><g><path d="M 70.062 0.002 C 78.196 -0.129 85.611 7.486 82.537 16.401 C 79.648 24.776 67.536 38.467 54.792 34.623 C 49.877 33.141 45.512 30.291 42.211 27.12 C 44.7 25.839 46.836 22.497 48.555 20.368 C 50.579 17.862 52.733 15.494 54.792 12.953 C 57.776 9.271 60.476 4.39 64.47 1.717 C 66.117 0.615 68.058 0.33 70.062 0.002 Z" fill="rgb(255, 255, 255)"></path><path d="M 11.028 0.001 C 14.307 -0.026 16.648 0.496 18.662 1.716 C 21.845 3.643 24.539 7.216 26.835 10.077 C 31.118 15.413 36.729 20.317 40.169 26.369 C 38.35 26.025 36.243 25.116 33.824 25.512 C 25.849 26.815 21.941 32.811 24.362 41.911 L 23.932 41.911 C 22.319 40.304 20.705 38.696 19.092 37.088 C 13.35 31.365 6.418 25.801 1.887 18.973 C -1.434 13.969 0.03 7.761 3.178 3.86 C 5.154 1.41 7.717 0.248 11.028 0.001 Z" fill="rgb(255, 255, 255)"></path><path d="M 24.524 43.633 C 28.317 46.411 34.556 54.774 32.804 62.177 C 31.278 68.623 28.17 73.879 24.846 78.576 C 21.723 82.991 16.301 89.315 8.071 86.08 C 2.521 83.898 -2.433 76.47 1.297 69.144 C 4.161 63.519 12.152 55.346 16.996 51.459 C 19.578 49.385 22.963 46.649 24.524 43.633 Z" fill="rgb(255, 255, 255)"></path><path d="M 65.657 56.102 C 76.321 55.937 84.762 65.285 80.173 75.931 C 78.121 80.697 74.059 83.751 68.131 84.507 C 58.345 85.753 50.22 74.962 53.505 65.641 C 54.872 61.766 57.93 58.574 61.678 57.067 C 62.933 56.504 64.283 56.177 65.657 56.102 Z" fill="rgb(255, 231, 0)"></path></g></svg>