<svg xmlns="http://www.w3.org/2000/svg" width="28" height="28" fill="none"><path d="M 18.905 11.689 L 16.411 19.621 L 11.57 19.621 L 9.076 11.689 C 8.365 9.427 8.816 6.963 10.284 5.095 L 13.418 1.109 C 13.709 0.74 14.272 0.74 14.563 1.109 L 17.697 5.095 C 19.165 6.963 19.617 9.427 18.905 11.689 Z" fill="transparent" stroke="rgb(37, 88, 180)" stroke-linecap="round" stroke-linejoin="round" stroke-dasharray=""></path><path d="M 11.57 23.225 C 11.57 25.63 13.991 26.832 13.991 26.832 C 13.991 26.832 16.411 25.63 16.411 23.225" fill="transparent" stroke="rgb(37, 88, 180)" stroke-linecap="round" stroke-linejoin="round" stroke-dasharray=""></path><path d="M 9.755 14.206 C 5.52 17.213 7.94 22.022 7.94 22.022 L 11.57 19.617" fill="transparent" stroke="rgb(37, 88, 180)" stroke-linecap="round" stroke-linejoin="round" stroke-dasharray=""></path><path d="M 18.748 14.206 C 22.983 17.213 20.563 22.022 20.563 22.022 L 16.933 19.617" fill="transparent" stroke="rgb(37, 88, 180)" stroke-linecap="round" stroke-linejoin="round" stroke-dasharray=""></path><path d="M 13.991 12.405 C 12.654 12.405 11.57 11.329 11.57 10.001 C 11.57 8.672 12.654 7.596 13.991 7.596 C 15.327 7.596 16.411 8.672 16.411 10.001 C 16.411 11.329 15.327 12.405 13.991 12.405 Z" fill="transparent" stroke="rgb(37, 88, 180)" stroke-linecap="round" stroke-linejoin="round" stroke-dasharray=""></path></svg>