<svg xmlns="http://www.w3.org/2000/svg" width="28" height="28" fill="none" overflow="visible"><g><path d="M 0 28 L 0 0 L 28 0 L 28 28 Z" fill="transparent"></path><path d="M 4.088 14.363 C 4.088 17.373 5.642 20.061 8.092 21.685 L 13.916 25.395 C 14.154 25.227 14.322 25.087 14.574 24.989 C 15.078 25.479 15.582 25.871 16.212 26.263 L 14.434 27.397 C 14.126 27.593 13.776 27.593 13.44 27.453 L 6.776 23.169 C 3.976 21.265 2.198 18.087 2.128 14.699 L 2.1 4.871 C 2.1 4.297 2.632 3.975 3.136 3.933 L 4.606 3.807 C 6.944 3.597 9.142 2.855 11.116 1.609 L 13.454 0.125 C 13.72 -0.043 14.126 -0.015 14.392 0.139 L 16.506 1.483 C 18.746 2.897 21.252 3.723 23.898 3.863 L 24.682 3.933 C 25.228 3.989 25.676 4.311 25.718 4.871 L 25.718 11.339 C 25.088 10.933 24.472 10.597 23.758 10.373 L 23.758 5.837 C 20.706 5.669 17.85 4.689 15.316 3.065 L 13.916 2.169 L 12.446 3.107 C 9.926 4.717 7.098 5.669 4.074 5.837 L 4.074 14.377 Z" fill="rgb(255,255,255)"></path><path d="M 27.678 18.7 C 27.678 22.508 24.598 25.589 20.79 25.589 C 16.982 25.589 13.902 22.508 13.902 18.7 C 13.902 14.893 16.982 11.813 20.79 11.813 C 24.598 11.813 27.678 14.892 27.678 18.7 Z M 25.704 18.7 C 25.704 15.984 23.506 13.786 20.79 13.786 C 18.074 13.786 15.876 15.984 15.876 18.7 C 15.876 21.416 18.074 23.614 20.79 23.614 C 23.506 23.614 25.704 21.416 25.704 18.7 Z" fill="rgb(255,255,255)"></path><path d="M 17.625 19.871 C 17.233 19.479 17.275 18.863 17.625 18.513 C 17.975 18.163 18.563 18.107 18.983 18.429 L 20.159 19.605 L 22.483 16.133 C 22.791 15.685 23.435 15.643 23.841 15.937 C 24.275 16.245 24.373 16.847 24.065 17.309 L 21.083 21.761 C 20.733 22.279 20.019 22.279 19.599 21.873 L 17.625 19.885 Z" fill="rgb(255,255,255)"></path></g></svg>