<svg xmlns="http://www.w3.org/2000/svg" width="48.208" height="39.955" fill="none" overflow="visible"><g><path d="M 23.98 9.693 C 24.229 9.683 24.456 9.738 24.591 9.969 C 24.765 10.267 24.911 10.587 25.064 10.898 L 27.01 14.835 C 27.186 15.191 27.459 15.706 27.604 16.064 C 27.928 16.156 28.755 16.255 29.132 16.31 L 32.608 16.812 C 33.171 16.893 33.719 16.964 34.292 17.066 C 34.804 17.158 35.027 17.631 34.689 18.061 C 34.534 18.259 34.326 18.437 34.141 18.613 C 33.878 18.864 33.617 19.117 33.357 19.371 L 31.185 21.493 C 30.741 21.924 30.251 22.383 29.826 22.829 C 29.866 23.273 30.027 24.052 30.109 24.529 L 30.697 27.947 C 30.78 28.424 31.015 29.369 30.909 29.857 C 30.857 30.099 30.447 30.269 30.194 30.167 C 29.939 30.064 29.691 29.935 29.43 29.798 L 28.325 29.217 C 26.956 28.496 25.541 27.729 24.163 27.036 C 24.042 26.998 23.946 27.059 23.839 27.114 C 23.477 27.304 23.116 27.495 22.755 27.685 L 19.607 29.342 C 19.106 29.606 18.581 29.897 18.066 30.137 C 17.976 30.179 17.776 30.217 17.677 30.198 C 16.993 30.07 17.255 29.229 17.336 28.755 L 17.555 27.477 C 17.819 25.94 18.1 24.386 18.343 22.848 C 18.242 22.692 17.551 22.048 17.365 21.867 L 14.802 19.364 C 14.369 18.942 13.908 18.518 13.492 18.081 C 13.412 17.997 13.354 17.892 13.333 17.777 C 13.304 17.616 13.34 17.451 13.433 17.317 C 13.638 17.021 14.128 17.017 14.462 16.97 L 15.576 16.81 L 18.726 16.354 C 19.311 16.269 19.957 16.188 20.534 16.083 C 20.774 15.664 21.043 15.076 21.265 14.627 L 22.75 11.627 C 22.999 11.124 23.241 10.61 23.498 10.111 C 23.631 9.852 23.701 9.772 23.98 9.693 Z" fill="rgb(255,213,0)"></path><path d="M 11.092 3.41 C 11.091 2.599 11.302 2.104 11.889 1.514 C 12.109 1.296 12.356 1.108 12.624 0.954 C 12.977 0.751 14.799 -0.011 15.114 0 C 15.145 0.001 15.166 0.01 15.191 0.026 C 15.249 0.157 15.024 0.715 14.962 0.876 C 14.461 2.169 13.327 3.396 11.909 3.627 C 11.747 3.654 11.531 3.676 11.371 3.723 C 10.923 3.963 10.425 4.561 10.041 4.906 C 10.625 4.652 11.127 4.505 11.788 4.574 C 12.389 4.636 12.986 4.71 13.581 4.82 C 13.698 4.842 13.82 4.881 13.87 4.999 C 13.866 5.157 13.468 5.553 13.341 5.676 C 12.509 6.481 11.238 6.959 10.085 6.673 C 9.764 6.593 9.072 6.221 8.732 6.493 C 8.347 6.944 7.766 7.807 7.473 8.338 C 8.629 7.411 9.973 7.523 11.373 7.442 C 11.411 7.44 11.451 7.458 11.484 7.476 C 11.507 7.513 11.531 7.554 11.505 7.602 C 10.846 8.853 9.605 9.904 8.162 10.051 C 7.675 10.095 7.087 9.853 6.625 10.042 C 6.449 10.114 6.276 10.6 6.191 10.774 C 5.907 11.36 5.712 11.99 5.46 12.588 C 5.737 12.264 5.898 12.076 6.261 11.832 C 6.417 11.728 6.58 11.635 6.748 11.553 C 7.063 11.399 9.1 10.488 9.287 10.548 C 9.319 10.598 9.327 10.614 9.304 10.678 C 8.745 12.25 7.794 14.016 6.053 14.473 C 5.616 14.588 4.893 14.492 4.739 15.085 C 4.541 16.021 4.324 17.057 4.25 18.014 C 4.817 16.638 5.568 16.018 6.723 15.137 C 6.876 15.02 7.45 14.511 7.603 14.518 C 7.643 14.548 7.678 14.574 7.677 14.635 C 7.65 16.445 6.903 18.417 5.379 19.484 C 4.95 19.784 4.199 19.896 4.13 20.583 C 4.075 21.503 4.207 22.537 4.288 23.451 C 4.43 22.953 4.552 22.484 4.782 22.017 C 4.95 21.674 5.171 21.343 5.384 21.027 C 5.54 20.796 6.737 19.166 6.904 19.082 C 6.96 19.054 6.988 19.056 7.047 19.074 C 7.156 19.197 7.202 20.19 7.204 20.398 C 7.212 21.796 6.744 23.38 5.817 24.441 C 5.38 24.942 4.952 25.112 4.733 25.819 C 4.927 26.633 5.173 27.46 5.485 28.233 C 5.568 28.438 5.617 28.653 5.717 28.852 L 5.737 28.858 C 5.761 28.636 5.716 28.441 5.708 28.247 C 5.7 28.084 5.77 27.624 5.781 27.486 C 5.82 26.967 6.813 24.146 7.081 23.845 C 7.113 23.836 7.123 23.824 7.155 23.843 C 7.451 24.022 7.779 25.433 7.845 25.817 C 8.022 26.84 7.938 28.129 7.554 29.1 C 7.354 29.607 6.737 30.376 6.769 30.894 C 6.794 31.299 7.951 32.914 8.282 33.27 C 7.998 32.582 7.885 31.945 7.947 31.193 C 8.033 30.169 8.13 29.138 8.267 28.122 C 8.273 28.075 8.319 28.049 8.35 28.028 C 8.577 28.019 8.863 28.48 8.989 28.659 C 9.71 29.688 10.099 30.912 10.106 32.168 C 10.107 32.645 10.092 32.851 10.012 33.308 C 9.921 33.825 9.469 34.654 9.917 35.061 C 10.612 35.692 11.441 36.345 12.253 36.81 C 11.984 36.514 11.689 36.166 11.543 35.789 C 11.168 34.829 11.029 33.78 10.86 32.768 C 10.83 32.591 10.732 32.092 10.783 31.947 C 10.932 31.862 11.239 32.076 11.372 32.156 C 12.098 32.6 12.697 33.223 13.112 33.965 C 13.491 34.637 13.747 35.461 13.758 36.235 C 13.765 36.729 13.727 37.133 13.854 37.62 L 13.885 37.635 C 14.232 37.806 14.678 37.941 15.037 38.077 C 15.278 38.169 16.183 38.372 16.325 38.484 C 16.356 38.62 16.146 38.928 16.004 38.981 C 15.863 38.982 15.72 38.915 15.582 38.89 C 14.845 38.757 14.316 38.307 13.549 38.515 C 12.924 39.365 12.571 39.644 11.465 39.876 C 10.494 40.079 7.942 39.783 7.361 38.897 C 7.337 38.685 7.658 38.526 7.815 38.406 C 8.672 37.747 9.76 37.301 10.847 37.274 C 11.376 37.26 11.566 37.325 12.045 37.411 C 11.675 37.151 11.287 36.922 10.918 36.657 C 10.568 36.407 10.219 36.037 9.845 35.824 C 9.747 35.768 9.499 35.76 9.378 35.754 C 8.636 36.357 8.263 36.503 7.267 36.41 C 6.047 36.295 3.939 35.297 3.406 34.138 C 4.081 33.638 5.671 33.434 6.508 33.578 C 7.423 33.735 7.617 33.862 8.37 34.274 C 8.07 33.887 7.75 33.507 7.458 33.113 C 7.178 32.735 6.925 32.246 6.616 31.888 C 6.551 31.813 6.276 31.66 6.176 31.605 C 5.442 31.884 4.777 31.917 4.011 31.55 C 2.85 30.993 1.71 29.651 1.224 28.459 C 1.184 28.36 1.001 27.867 1.208 27.868 C 2.309 27.87 3.509 28.134 4.427 28.763 C 4.961 29.128 5.17 29.461 5.556 29.875 C 5.366 29.34 5.098 28.806 4.898 28.272 C 4.69 27.716 4.535 27.101 4.299 26.557 C 4.267 26.483 4.059 26.216 3.999 26.146 C 3.199 26.142 2.706 26.038 2.104 25.429 C 1.271 24.586 0.664 23.516 0.293 22.394 C 0.246 22.252 0.01 21.355 0 21.339 L 0 20.893 C 0.154 20.855 0.283 20.882 0.43 20.939 C 2.016 21.551 3.114 22.731 3.826 24.234 L 3.849 24.23 C 3.857 24.134 3.825 23.96 3.806 23.859 C 3.696 23.236 3.668 22.589 3.642 21.957 C 3.62 21.417 3.6 21.221 3.362 20.738 C 2.675 20.541 2.193 20.23 1.832 19.587 C 1.078 18.246 0.743 16.663 0.755 15.132 C 0.756 14.969 0.755 14.533 0.874 14.418 C 1.024 14.383 1.273 14.616 1.398 14.717 C 2.472 15.586 3.251 16.832 3.55 18.181 C 3.603 18.418 3.626 18.652 3.704 18.884 L 3.716 18.918 C 3.767 18.386 3.792 17.845 3.838 17.31 C 3.871 16.929 4.005 16.333 3.908 15.972 C 3.755 15.481 3.26 15.22 3 14.79 C 2.125 13.341 2.309 11.27 2.603 9.663 C 2.636 9.482 2.763 8.92 2.953 8.879 C 3.146 8.952 3.411 9.427 3.542 9.601 C 4.516 10.893 4.593 12.23 4.539 13.78 C 4.642 13.582 4.834 12.875 4.936 12.603 C 5.075 12.233 5.31 11.687 5.372 11.317 C 5.466 10.746 4.947 10.454 4.746 9.986 C 4.567 9.567 4.503 9.051 4.519 8.591 C 4.574 7.252 4.854 5.831 5.462 4.629 C 5.535 4.485 5.695 4.156 5.867 4.164 C 5.909 4.189 5.954 4.22 5.978 4.264 C 6.651 5.462 6.807 6.902 6.618 8.249 C 6.568 8.61 6.471 8.974 6.409 9.337 C 6.619 8.93 6.907 8.459 7.148 8.062 C 7.355 7.721 7.689 7.344 7.862 6.98 C 7.929 6.839 7.942 6.543 7.953 6.376 C 7.852 6.173 7.708 5.968 7.613 5.761 C 7.375 5.244 7.444 4.483 7.545 3.946 C 7.759 2.821 8.314 1.761 9.051 0.889 C 9.206 0.706 9.608 0.163 9.863 0.22 C 9.895 0.256 9.92 0.297 9.929 0.345 C 10.235 1.888 9.985 3.812 9.233 5.176 C 9.181 5.264 9.137 5.338 9.092 5.431 C 9.208 5.334 9.243 5.299 9.342 5.186 C 9.61 4.869 9.888 4.575 10.18 4.28 C 10.455 4.003 10.837 3.691 11.092 3.41 Z M 38.148 4.901 C 37.96 4.694 37.001 3.723 36.789 3.705 C 35.4 3.587 34.367 2.843 33.635 1.678 C 33.474 1.423 32.948 0.326 33.02 0.032 C 33.066 0.006 33.082 0.005 33.134 0.007 C 33.534 0.021 35.358 0.827 35.732 1.053 C 35.952 1.185 36.162 1.367 36.342 1.551 C 36.915 2.136 37.12 2.62 37.113 3.429 C 37.459 3.748 37.827 4.078 38.161 4.408 C 38.462 4.705 38.764 5.101 39.077 5.383 C 38.928 5.08 38.769 4.81 38.648 4.489 C 38.173 3.228 38.035 1.809 38.246 0.479 C 38.265 0.36 38.283 0.242 38.406 0.205 C 38.739 0.313 39.407 1.183 39.635 1.522 C 40.365 2.606 40.913 4.075 40.707 5.395 C 40.649 5.768 40.354 6.072 40.277 6.436 C 40.249 6.571 40.28 6.805 40.326 6.943 C 40.544 7.349 40.862 7.772 41.12 8.166 C 41.336 8.496 41.567 8.954 41.777 9.248 C 41.741 8.971 41.665 8.692 41.619 8.414 C 41.413 7.153 41.504 5.784 42.05 4.617 C 42.123 4.462 42.215 4.151 42.4 4.156 C 42.47 4.197 42.524 4.255 42.569 4.33 C 43.414 5.84 43.913 7.984 43.562 9.694 C 43.465 10.164 42.877 10.699 42.838 11.005 C 42.76 11.609 43.257 12.412 43.408 12.993 C 43.438 13.106 43.586 13.602 43.65 13.687 C 43.669 13.631 43.64 12.827 43.652 12.645 C 43.735 11.349 44.03 10.498 44.776 9.43 C 44.869 9.297 45.06 8.987 45.185 8.907 C 45.239 8.872 45.252 8.877 45.309 8.892 C 45.629 9.177 45.788 10.779 45.809 11.181 C 45.896 12.798 45.849 14.387 44.551 15.534 C 44.091 15.941 44.311 16.674 44.365 17.245 C 44.414 17.821 44.459 18.398 44.498 18.976 C 44.592 18.57 44.632 18.24 44.751 17.825 C 45.132 16.511 45.929 15.357 47.023 14.535 C 47.114 14.465 47.211 14.392 47.328 14.407 C 47.357 14.435 47.382 14.448 47.388 14.49 C 47.607 16.098 47.218 17.903 46.506 19.345 C 46.116 20.134 45.641 20.492 44.857 20.741 C 44.432 21.44 44.608 22.316 44.505 23.109 C 44.479 23.304 44.347 24.141 44.367 24.248 L 44.395 24.241 C 44.963 22.771 46.345 21.442 47.825 20.92 C 47.957 20.874 48.076 20.859 48.208 20.907 L 48.208 21.291 C 48.162 21.41 48.139 21.581 48.106 21.71 C 47.727 23.223 46.94 24.789 45.69 25.764 C 45.257 26.102 44.742 26.161 44.212 26.159 C 44.127 26.246 43.946 26.458 43.901 26.564 C 43.661 27.129 43.504 27.751 43.289 28.326 C 43.092 28.855 42.8 29.414 42.624 29.943 C 42.899 29.577 43.184 29.229 43.57 28.915 C 44.496 28.163 45.795 27.896 46.967 27.863 C 47.035 27.861 47.06 27.893 47.092 27.941 C 47.114 28.117 47.019 28.374 46.95 28.539 C 46.477 29.668 45.239 31.106 44.107 31.587 C 43.383 31.895 42.754 31.897 42.036 31.611 C 41.34 31.954 41.219 32.473 40.781 33.063 C 40.477 33.471 40.15 33.878 39.827 34.273 C 40.488 33.926 40.563 33.815 41.335 33.647 C 42.248 33.435 43.223 33.523 44.106 33.821 C 44.268 33.876 44.729 34.009 44.765 34.174 C 44.742 34.253 44.722 34.293 44.673 34.362 C 43.964 35.359 42.377 36.181 41.2 36.38 C 40.627 36.476 39.842 36.476 39.342 36.149 C 39.135 36.014 39.019 35.899 38.833 35.767 L 38.815 35.754 C 38.691 35.763 38.444 35.772 38.344 35.831 C 37.985 36.042 37.644 36.403 37.309 36.643 C 36.953 36.897 36.576 37.126 36.219 37.379 C 36.381 37.355 36.544 37.333 36.706 37.313 C 38.251 37.133 39.556 37.721 40.734 38.677 C 40.794 38.725 40.846 38.766 40.855 38.846 C 40.814 38.944 40.699 39.071 40.607 39.132 C 39.157 40.092 36.374 40.389 35.059 39.049 C 34.913 38.901 34.796 38.689 34.664 38.528 L 34.647 38.507 C 33.903 38.338 33.528 38.679 32.826 38.841 C 32.459 38.926 32.119 39.153 31.923 38.68 C 31.88 38.578 31.872 38.59 31.908 38.479 C 31.95 38.434 31.996 38.396 32.059 38.38 C 32.797 38.198 33.623 37.963 34.314 37.64 L 34.345 37.625 C 34.451 37.28 34.458 36.82 34.45 36.454 C 34.41 34.724 35.401 32.979 36.897 32.113 C 37.039 32.031 37.273 31.853 37.426 31.955 C 37.43 31.971 37.442 32.017 37.44 32.034 C 37.286 33.253 37.105 34.543 36.697 35.704 C 36.557 36.102 36.226 36.513 35.959 36.809 C 36.774 36.325 37.761 35.602 38.411 34.896 C 38.614 34.545 38.323 33.863 38.255 33.577 C 37.805 31.682 38.35 29.499 39.69 28.08 C 39.736 28.031 39.809 28.031 39.867 28.041 C 40.016 28.173 40.246 30.875 40.262 31.272 C 40.275 31.543 40.269 31.815 40.244 32.086 C 40.194 32.602 40.086 32.871 39.901 33.341 C 40.41 32.695 40.886 31.978 41.307 31.267 C 41.667 30.661 41.156 30.134 40.885 29.596 C 40.729 29.287 40.649 29.135 40.548 28.79 C 40.156 27.419 40.199 25.961 40.67 24.615 C 40.732 24.441 40.912 23.874 41.079 23.827 C 41.251 23.895 41.355 24.316 41.428 24.489 C 41.849 25.483 42.225 26.484 42.433 27.546 C 42.539 28.089 42.463 28.417 42.467 28.937 C 42.672 28.456 43.501 26.17 43.438 25.763 C 43.351 25.203 42.459 24.589 42.115 24.107 C 41.762 23.61 41.528 23.066 41.33 22.493 C 41.002 21.545 40.955 20.553 41.062 19.564 C 41.077 19.429 41.07 19.207 41.143 19.095 C 41.178 19.04 41.199 19.042 41.257 19.036 C 41.523 19.145 43.226 21.595 43.441 22.045 C 43.547 22.267 43.651 22.506 43.723 22.741 C 43.79 22.959 43.828 23.185 43.92 23.395 L 43.934 23.426 C 44 22.587 44.153 21.347 44.068 20.508 C 43.953 19.953 43.315 19.767 42.928 19.544 C 41.975 18.993 41.307 17.882 40.93 16.89 C 40.777 16.488 40.407 14.878 40.564 14.546 C 40.732 14.463 41.287 14.997 41.446 15.118 C 42.622 16.016 43.346 16.609 43.964 17.991 C 43.822 16.973 43.694 15.91 43.424 14.913 C 43.013 14.524 42.855 14.589 42.339 14.506 C 41.02 14.292 40.031 13.141 39.465 12.004 C 39.339 11.752 38.867 10.795 38.901 10.573 C 38.945 10.547 38.957 10.542 39.009 10.547 C 39.345 10.578 41.582 11.599 41.938 11.833 C 42.243 12.033 42.482 12.272 42.722 12.543 C 42.494 11.934 42.274 11.332 41.997 10.743 C 41.897 10.532 41.796 10.269 41.675 10.072 C 41.116 9.836 40.559 10.116 39.959 10.038 C 38.735 9.879 37.689 9.11 37.003 8.107 C 36.897 7.951 36.684 7.691 36.705 7.503 C 36.736 7.48 36.784 7.455 36.824 7.456 C 38.269 7.487 39.512 7.448 40.735 8.318 C 40.389 7.781 39.881 6.935 39.442 6.464 C 39.236 6.243 38.51 6.56 38.228 6.645 C 38.059 6.696 37.886 6.73 37.71 6.746 C 36.556 6.855 35.307 6.26 34.579 5.376 C 34.474 5.249 34.288 5.112 34.354 4.943 C 34.528 4.793 35.115 4.738 35.362 4.7 C 36.45 4.531 37.12 4.444 38.148 4.901 Z" fill="rgb(255,213,0)"></path><path d="M 9.086 5.43 C 9.132 5.337 9.175 5.264 9.227 5.175 L 9.336 5.186 C 9.237 5.298 9.203 5.333 9.086 5.43 Z" fill="rgb(255,213,0)"></path></g></svg>