<svg xmlns="http://www.w3.org/2000/svg" width="14.869" height="14.24" fill="none" overflow="visible"><path d="M 6.484 0.691 C 6.784 -0.23 8.087 -0.23 8.386 0.691 L 9.456 3.983 C 9.59 4.394 9.973 4.672 10.406 4.673 L 13.868 4.673 C 14.837 4.673 15.239 5.913 14.456 6.483 L 11.656 8.517 C 11.305 8.771 11.158 9.223 11.292 9.635 L 12.362 12.927 C 12.662 13.848 11.607 14.615 10.823 14.045 L 8.023 12.011 C 7.672 11.756 7.197 11.756 6.847 12.011 L 4.047 14.045 C 3.263 14.615 2.209 13.848 2.508 12.927 L 3.578 9.635 C 3.711 9.223 3.565 8.771 3.215 8.517 L 0.415 6.484 C -0.369 5.914 0.033 4.674 1.002 4.674 L 4.463 4.674 C 4.896 4.674 5.279 4.395 5.414 3.984 L 6.485 0.691 Z" fill="rgb(255, 213, 0)"></path></svg>