<svg xmlns="http://www.w3.org/2000/svg" width="46" height="46" fill="none"><path d="M 7.434 36.649 C 6.356 35.571 5.75 34.108 5.75 32.583 C 5.75 31.058 6.356 29.596 7.434 28.518 C 8.512 27.439 9.975 26.833 11.5 26.833 C 13.025 26.833 14.488 27.439 15.566 28.518 C 16.644 29.596 17.25 31.058 17.25 32.583 C 17.25 34.108 16.644 35.571 15.566 36.649 C 14.488 37.727 13.025 38.333 11.5 38.333 C 9.975 38.333 8.512 37.727 7.434 36.649 Z" fill="transparent" stroke-width="3.83" stroke="rgb(10,171,200)" stroke-linecap="round" stroke-linejoin="round" stroke-dasharray=""></path><path d="M 26.601 36.649 C 25.523 35.571 24.917 34.108 24.917 32.583 C 24.917 31.058 25.523 29.596 26.601 28.518 C 27.679 27.439 29.142 26.833 30.667 26.833 C 32.192 26.833 33.654 27.439 34.732 28.518 C 35.811 29.596 36.417 31.058 36.417 32.583 C 36.417 34.108 35.811 35.571 34.732 36.649 C 33.654 37.727 32.192 38.333 30.667 38.333 C 29.142 38.333 27.679 37.727 26.601 36.649 Z" fill="transparent" stroke-width="3.83" stroke="rgb(10,171,200)" stroke-linecap="round" stroke-linejoin="round" stroke-dasharray=""></path><path d="M 17.25 32.583 L 17.25 7.667 L 36.417 7.667 L 36.417 32.583 M 17.25 15.333 L 36.417 15.333" fill="transparent" stroke-width="3.83" stroke="rgb(10,171,200)" stroke-linecap="round" stroke-linejoin="round" stroke-dasharray=""></path></svg>